<?xml version="1.0" encoding="UTF-8"?><svg id="Layer_1" xmlns="http://www.w3.org/2000/svg" viewBox="0 0 1161.1 519.3"><defs><style>.cls-1{stroke:#746047;stroke-miterlimit:10;stroke-width:2px;}.cls-1,.cls-2{fill:#746047;}</style></defs><g><path class="cls-2" d="M666.9,122.7c-.5,.6-.8,.9-1.4,1.6,4.3,3.5,2.2,10,6.6,13.5-.4,1.9-.7,3.4-1,4.8-1.8,1-2.6,.1-3.4-1.1-1.9-2.6-1.9-2.5-4.5-3.1-1.4,2.7,.4,5.1,1.1,7.4,.4,1.5,1.1,2.9,1.4,4.5,.6,2.8,.9,5.8,3,8.2,.5,.6,.6,1.5,.8,2.2,1.1,4.2,1.9,8.5,3.2,12.7,.7,2.1,2.2,3.9,3.6,6.2-.9,1-1.9,2.2-2.8,3.3-3.1-.3-4.2-2.1-4.1-4.8-1.4-.9-2.8-1.7-4.4-2.6-.1-1.1-.1-2.2-.4-3.3-.4-1.9-.6-4.1-1.7-5.5-2.6-3.4-3.7-7.5-5.7-11.1-1.6-2.9-2.4-6.3-3.6-9.5-.3-.9-1-1.7-1.6-2.4-1.9-2.2-3.8-4.4-5.7-6.6-1.3-1.5-2.7-2.4-4.7-1.6q-6.2,5.6-9.5,2.7c2.4-4.7,.2-9.5-.2-14.2-.4-5.8-2-11.5-2.9-16.2-5.7-6.9-10.8-13.2-16-19.4-1.9-2.2-4.3-4-6.2-5.7-.7,.1-1.1,0-1.3,.2-3.4,3-6.5,2.8-9.7-.6-1.2-1.2-2.9-1.9-4.9-3.1-1.6,4.4-4,8-3.9,12.6,.1,5.7,.6,11.5-.1,17.2-.7,5.4-.6,10.7-.8,16.1,0,1.3,0,2.6,.3,3.9,.6,3.2,.1,8.3-1.3,11.7-2.4,.3-4.9,.7-7.8,1.1,.5,12.4-3.4,23.5-6.9,34.3,.8,2,1.5,3.8,2.1,5.5-3.5,3.4-4.3,7.3-4.2,11.5,.1,3.9,.3,7.8,.4,12.2-.5,.5-1.5,1.3-2.4,2-.7-.2-1.3-.2-1.7-.4-3.4-2-4.5-5.7-3.9-8.9,.7-4.3,.4-8.5,.7-12.7,.2-2.1,.8-4.1,1.2-6.2,.3-1.4,.7-2.9,.7-4.3,.1-3.1,0-6.2,0-9.3,1-.9,1.8-1.6,3-2.6-.6-8,1-16.4-1-24.6-1.6-1.3-3.1-2.5-4.8-3.9-2.9,2.4-5.7,4.7-8.4,7.2-1,1-1.9,2.3-2.4,3.6-2.4,7.5-6.8,13.6-12,19.3-.8,.9-1.4,2.1-2,3.3-1.7,3.4-4.6,6.9-7.6,8.9-1.1-.5-2.2-1-3.4-1.5-1.1-.4-2.2-.7-3.5-1.1-3.3,1.3-6.7,4.4-11.5,1,2.8-2.4,5.2-4.6,7.7-6.7,2.5-2.1,4.9-4.2,7.3-6.3,.2-1.8,.4-3.2,.6-4.8,1.2-.6,2.3-1.2,3.5-1.8,.7-3.2,2.2-6,4.6-8.4,1.7-1.7,3-3.9,4-6.1,1.5-3.6,2.6-7.3,3.4-9.6,4.8-6.9,8.7-12.6,12.7-18.3,.6-.9,1.4-1.8,2.1-2.7,1.3-2,2.8-4,3.9-6.1,.8-1.4,1.1-2.9,3.1-3.4,1-.3,1.9-1.8,2.5-2.9,2.3-3.9,4.6-7.8,6.7-11.7,.5-1,.6-2.2,.8-3.2,5.5-5.4,7.6-12.3,9.9-19.2-2.8-2.9-5.2-5.5-7.9-8.3,.2-.5,.3-1.2,.7-1.6,3.4-2.7,5.4-6,6-10.4,.3-2,1.7-3.8,2.9-6.1-.7-.9-1.6-2-2.5-3.2-.7,.4-1.2,.6-1.4,.9-1.6,1.8-3.2,3.6-4.7,5.4-3.1,3.8-4.6,8.5-6.4,12.9-1.4,3.3-3.3,6.2-5.3,9.1-2.6,3.9-3.4,8.4-5.2,12.5-2.2,4.9-2.9,10.2-5.6,15-1.9,3.3-3.1,7-5.3,10.3-1.9,2.9-2.8,6.5-4.1,9.8-.8,2-2,3.5-3.9,4.8-3.1,2-6.3,4-7.3,8.1-3.4-1.6-3.6-3.9-3.3-5.7,2.6-4.8,5.3-8.9,7.2-13.4,1.1-2.6,1.7-5.5,4.3-7.5h-6c-1.6,2.9-4.7,3.6-7.9,4.8-1.9,2.6-4.1,5.4-6.7,8.9-3.1,1.7-6.6,4-9.3,7.6-2.8,3.7-6,7.2-9.1,10.8-.2,.2-.6,.5-.6,.7-.1,3.6-3,5.2-5.1,7.5-1.4,1.5-2.3,3.1-4.5,4.1-2.4,1.1-4.1,3.7-6.1,5.7-.8,.8-1.6,1.6-2.5,2.2-1.5,1-3,1.9-4.6,3,.4,1.5,.9,2.9,1.1,3.6,6.8,6.9,13.2,13.4,20.2,20.5,.1,.5,.1,2.3,.9,3.6,1.2,2.1,3.4,2.9,5.8,3.2,2.2,.3,4.4,.9,6.6,1.5,5.4,1.5,10.3,4.5,15.9,5.6,2.8,.6,5.4,2.2,8.1,3.4,2.4,1,4.7,2.1,7.1,3.2,.9,.4,1.8,.9,2.3,1.7,2.3,3.3,5.4,5.1,9.1,6.7,3.2,1.4,7.2,2.8,7.9,7.1,4.4,2.8,8.6,5.6,12.8,8.3,2,1.3,3.5,3.1,5.4,4.6,5.6,4.4,12,7.1,18.5,9.8,6.4,2.7,13,5,19.5,7.3,2.5,.9,5.3,1,7.7,2.6,.9,.6,2.2,.9,3.3,.9,4.2-.1,7.6,2.2,11.3,3.5,5.2,1.8,9.7,4.6,14.5,7,3.2,1.6,6.2,3.5,9.7,4.7,.6,1.1,1.2,2.2,1.8,3.5,4.8,1.5,8.2,5.2,12,8.3,5.2,4.3,10.6,8.4,15.6,13,4.3,3.9,9.1,7.5,11.2,13.3,.5,1.4,1.9,2.8,3.3,3.5,5,2.4,7.9,6.7,11.3,10.6-.9,2.2-2.6,1.3-3.9,1.5-3.6-2.1-7.9-3.6-10.6-6.4-2.7-2.7-7-3.6-8.7-7.9-2.9-.6-5.5-2.1-7.8-4.7-1.5-1.7-3.2-3.9-6.1-3.7-.3,0-.7-.1-.9-.3-2.8-2.1-5.6-4.2-8.7-6.5-.9,.6-1.9,1.3-3,2-3.4-2.1-6.7-4.3-9.3-7.5-1.3-1.6-3.8-2.2-5.5-3.7-1.5-1.4-2.4-3.5-4-4.8-2-1.6-4.4-2.6-7.2-4.2-.2,.1-.9,.4-1.6,.7-1.2,3.3,.5,5.7,2.3,8.2-.3,1.7-.9,3.3-2.5,4.2-5.1-4.7-10-9.2-14.8-13.7l.3-.3c-1.3-.5-2.9-.8-4-1.6-5.1-4-10.5-5.8-17.4-5.9-1-.8-2.1-1.7-3.3-2.6-1.9,.1-3.8,.2-5.9,.3-1.6,5,1.9,9.1,2.6,12.1,2.8,4.1,5.5,6.7,6.5,9.9,1.7,5.5,5,9.7,9.2,13.5-.3,1.2-.5,2.2-.8,3.5,.7,0,1.4,.1,2.7,.2-.3,1.2-.6,2.3-1.1,4-2-1.1-3.7-1.7-4.8-2.8-2-1.9-3.6-4.2-5.3-6.4-4.4-5.4-8.7-10.9-12.1-17-.4-.7-1-1.4-1.2-2.1-1.3-4.9-4.6-8.5-7.9-12-2.9-3-5.6-6.2-8.4-9.4-.4-.5-.3-1.3-.6-1.8-1.9-3.3-3.4-6.8-6.6-9.4-3.7-3-6.3-7.3-10.1-10.3-1.1-.9-1.2-4-2.1-4.1-2.4-.4-1.1-2.4-1.9-3.6-3.9-2-7.7-4-11.9-6.1-1.2,4.1-.3,8-.7,11.9-.3,4.1,2.5,7,3.8,10.8-.4,.8-.8,1.8-1.4,3-1.7-.3-3.2-.5-4.8-.7-1.8,1-1.6,2.7-1.4,4.3,.9,6.2,1.9,12.5,2.8,18.7,.1,.5,0,1.1,.2,1.4,2.6,2.8,1.4,6.2,1.9,9.7,4.1,3.2,4.3,7.7,3.4,12.8-4.4-1.7-6.7-4.9-8.2-8.7-1.6-3.9-2.8-7.9-4.2-11.9-.1-.3-.2-.7-.4-.9-4.6-4.1-4-10.1-5.3-15.3-.2-.8-.1-1.8-.5-2.4-3.7-5-3.9-11.3-6.1-16.8-.7-1.7-1.4-3.1-2.2-3.6-1.5-5.2-2.2-10-4.3-14-2.1-3.9-5.6-7.1-8.8-10.3-.8-.8-2.7-.4-3.9-.6-1.7,4.2-.7,8.9-5,12.1-.6-2.6-.8-4.8-1.6-6.9-.8-2.1-2-4.1-2.9-6.1,.3-1.5,.6-2.9,.9-4.5-2.6-1.9-5.7-3.2-5-7.3-3.8-.9-6-4.6-10.1-4.6-1.2,2.2,.4,5-1.9,7.2-5.8-2.8-8-7.8-8.7-13.6-1-1.4-2-2.6-2.9-3.9-2.5-3.4-4.9-6.8-9.3-8.2-2.9-.9-5.7-2.3-8.4-3.7-1-.5-1.7-1.5-2.8-2.5-2.6-.8-6.1-.2-8.3-3.5-.5-.8-2.3-.8-3-1.1-1.4-1.7-2.7-2.9-3.6-4.4-1.1-1.8-2.2-3.7-2.7-5.7-.9-4.1-3.2-6.7-7-8.1-1.3-.5-2.6-1.2-4.2-2-.5,.4-1,.9-1.3,1.1,.8,3.8,1.8,7.2,2.3,10.6,.7,4.5,2.3,8.5,4.7,12.6,3.2,5.6,6.6,11,10.5,16.2,1.3,1.7,1.8,4.1,2.7,6.4-.6,2-.4,4.6-3,6.1-3-1.4-1.7-4.8-3.4-6.8-1.5-1.8-2.7-3.9-4.4-6.7-1.5,4.3-4.8,6.1-6.8,9.5-.6-.4-1.3-.7-2-1.2,.5-2.1,1-3.9,1.3-5.8,.2-1.1,.7-2.5,.3-3.3-1.3-2.6-.5-5.1-.4-7.5-.6-3.3-1.3-6.6-2-10.6-1.6-2.3-3.7-5.4-5.9-8.8-.5-3.1-1-6.6-1.6-10.4-4.3-2.2-5.4-6.9-7.7-10.7-1.5-2.6-2.8-5.5-4-8.1-4.2-.2-5,.5-5.6,3.8-.9,5.1-1.9,10.2-2.8,15.3-.1,.8-.4,1.7-.1,2.4,1.1,3,1,6,.1,9.1-.4,1.4,.6,3.1,.8,4.7,.6,4,.7,8.1,2.6,11.8,.4,.8,.2,2,.5,2.9,.9,2.9,.6,6.3,4.2,8.1-.9,2.4-1.7,4.4-2.8,7.2-1.8-1.9-3.9-3.1-4-4.4-.4-4.3-3.7-5.4-7-7.5-1.7,1.7-3.3,3.3-5,5,.2,.7,.3,1.5,.6,2.5-.8,1-1.7,2.2-2.6,3.3,.9,4,2.6,8.1,2.2,11.9-.3,3.4,.8,5.5,2.3,8,.1,.1,.1,.3,.2,1-.6,.8-1.5,1.9-2.4,3-4.5-1.3-3.3-7.5-8.1-8.5-2.8,2.5-5.1,5.4-4.4,10-3.2,2.5-4.2,6-3.7,9.9,.3,2.9-1.2,5.4-1.6,8-1,5.4-3.6,10.1-5.5,15.1-.1,.2-.5,.3-1.1,.6-.8-4.6-1.4-9-.5-13.7,.9-4.6,1.2-9.3,1.9-13.9,.2-1.6,.7-3.1,1.2-4.6,1.2-3.9,2.7-7.7,3.6-11.6,.9-3.9,1.7-7.9,3.5-11.5,.5-1,.5-2.3,.4-3.4-.5-6.1,.9-12,2.9-18-1.2-1.8-1.3-4.6-4.1-5.9-2.1,1.1-4.2,2.3-6.6,3.7-.9,3.4-2.2,6.9-2.8,10.6-.5,3.1-.7,6-3.6,8.1-1.4,1.1-2.1,3.3-3.4,5.5v17.1c0,4.9-1.9,9.2-4.1,13.4-.6,1.2-2.1,1.9-2.4,2.2-2.4,4.6-4.4,8.3-6.3,11.9-2,3.6-2.3,7.9-5.1,11.3-1,1.2-1.1,3.4-.9,5.1,.4,4.2-.9,8-2,11.9-.2,.6-.8,1-1.2,1.4-2.9-.4-4.7-1.8-4.8-4.6h-2.4c-3.5,3.7-6.2,7.8-8.5,12.3-2,3.9-6.1,4.3-9.6,1.2,1.4-3.6,2.7-7.4,4.4-11.1,2.1-4.5,4.5-8.9,6.6-13.4,.7-1.4,.9-3.1,1-4.7,.1-3.2,0-6.3,1.8-9.4,2.1-3.6,1.1-7.9,1-12-1.9-1.5-3.7-2.8-5.7-4.3-3.4,2.4-5.8,5.7-7.7,9.2-2.5,4.5-4.1,9.4-6.9,13.9-2.2,3.5-3.4,7.7-5,11.6-1.4,3.3-2,6.7-4.3,9.7-1.9,2.5-2.4,6-3.8,8.9s-2.4,3-6.2,1.7c-.2-1-.3-2.1-.5-3.1-.6-3-1.7-5.6-4.3-7.4-1.2-.8-2-2.1-3.1-3.2-.7,.3-1.4,.5-1.7,.9-2.9,3.7-5.7,7.4-8.6,11.1-2.7,3.5-5.4,6.9-8.1,10.4-1,1.3-1.9,2.7-2.6,4.1-2.4,5.3-4.8,10.8-8.8,15-3.2,3.4-5.3,7.7-9.3,10.5-2.1,1.5-3.2,4.4-4.8,6.6-2.9,4.1-5.7,8.3-8.6,12.4-.5,.6-1.2,1.1-2,1.8-.7-.5-1.3-.9-1.5-1.1v-13.7c-3.4-2.3-7-.9-9.5,.9-2.8,1.9-5.6,2.3-8.6,2.9-1.4,.3-2.8,.7-4.2,1-4.7,1-8.2,4.4-12.5,6.3-3.5,1.6-6.9,3.4-10.4,5-.8,.4-1.9,.2-2.7,.2-1.3-1.3-1.2-2.6-.3-3.7,1.2-1.4,2.4-3,3.9-3.6,3.3-1.3,5.7-3.7,8.4-5.7,2.9-2.2,5.9-4.3,9.4-5.8,2.7-1.1,4.9-3.6,7.4-5.4,1.3-1,2.6-1.9,4-2.8,5.7-3.9,11.8-7.4,16.1-13.1,1.2-1.6,3.6-2.1,5.1-3.5,5.3-4.6,10.4-9.4,15.1-14.5,1-2.5,2.3-5,3.1-7.6,1.6-4.9,1-9.9-4.4-12.6-2.6-1.3-3.9-4.2-7.3-4.5-2.8-.3-5.4-1.9-8.1-2.9-.9-.4-1.7-.9-2.4-1.3-3.8-8.3-7.5-16.3-11.4-24.6h-2.4c-4.3,5.3-5,11.7-6.5,17.8-1.8,7.4-3.6,14.8-4.8,22.3-.7,4.6-.9,9.3-2,14-1.1,4.6-3.5,8.3-6.1,12-1.1,1.6-2.7,3.1-3.1,4.9-1,3.8-3.6,5.6-6.8,7.2-1.9-.7-2.4-2.5-1.7-3.9,2.8-5.1,2.2-10.8,3.6-16.1,.5-1.7,1-3.4,1.4-5.1,.4-1.9,.5-3.8,.7-5.8,.1-1.8,0-3.6,0-5.1-1.3-2.1-2.3-3.9-3.6-6-.9,.1-2-.2-2.7,.2-5.1,3.6-10.8,6.3-14.6,11.9-2.6,3.9-6.4,7-10,10.1-1.7,1.5-4.3,2-6.5,3-2,2-4.3,3.9-6.3,6.2-2,2.3-5.4,3.2-6,6.7-.1,.4-.7,.7-1.1,.9-4.9,2.8-8.2,7.2-12.3,10.8-6.4,5.6-10.9,12.9-15.8,19.7-1.8,2.5-3.4,5.2-5,7.8-.5,.8-1.1,1.6-1.5,2.2-1.4-.2-2.1-.1-2.6-.3-2.7-1.3-5.1-.6-7.4,.9-3.3,2.1-6.6,4.2-9.9,6.3-.8,.5-1.8,.7-2.3,.9-2.9-.6-2.1-3-2.9-4.3-2.2-1.9-4.6-1.6-7.1-1.2-1.6,.3-3.2,.7-4.8,.6-4.6-.4-8.1,1.9-11.8,4-4.1,2.4-7.6,5.8-12.8,6.4-3.4,.4-6.6,2.6-9.8,4.2-3.3,1.6-4.9,1.6-7.2-.9,.2-.4,.4-1,.7-1.2,4.7-2.5,9.5-4.9,14.2-7.3,1.4-.7,2.8-1.5,4.1-2.4,2.2-1.4,4.3-2.9,6.5-4.3,.9-.6,2.1-1.1,2.8-2,2-2.8,4.5-5.1,7.2-7.2,1.2-.9,1.8-2.6,2.5-4.1,.9-2.1,1.5-4.3,2.3-6.7,7.4-.9,13.5-5.7,20.4-6.1,4.2-4.6,8.9-7.7,14.2-10.8,2.8-3.4,2.4-8.5,4-12.4,3.9-2.3,7.5-4.2,10.8-6.4,2.6-1.7,5-3.8,4.7-7.2,2.8-3.1,5-6.5,8.1-8.7s7-3.3,10.2-5.5c1.7-1.9,3.5-3.6,4.9-5.7,1.3-2,1.9-4.4,2.8-6.5,1.5-.3,2.5-.6,3.6-.8,.9-1.1,1.9-2.2,2.8-3.3,1.7-.2,3.3-.3,5.5-.5,2.5-1.9,5.3-4,8.2-6.1,1.6-1.2,3.5-1.8,5.6-1.5,5,.8,9.2-1.4,13.4-3.7,.4-.2,.9-.4,1.3-.7,4.3-4.4,8.6-8.7,12.9-13.2,.7-.7,1-1.7,1.4-2.6,1.5-4,4.7-5.1,8.5-5.4,3.9-.4,7.7-1,12.5-1.7,4.5,1.9,8.5,6.6,13.6,9.3s10.4,5.1,16.9,8.2c5.5,.3,12.5,.5,19.5,1,2.4,.1,4.8,.8,6.7,2.5,1.2,1.1,2.6,1.9,4,2.9l3.8-1.9c4-6.6,7.3-13.2,11.7-18.9,2.4-3.1,4.6-7.1,8.9-8.5,.1,0,.3-.2,.4-.3,3.8-6,10.3-9.4,14.4-15.1,1.8-2.5,2.9-5.5,4.4-8.2,1.2-2.1,2.5-4.2,3.8-6.5,.5-1.7,1-3.7,1.8-5.6,3.9-10.1,9.2-19.4,16.7-27.3,.8-1.8,1.5-3.6,3.1-5.2,2.9-2.8,5.1-6.3,7.3-9.7,5.2-7.7,12.5-13.6,17.6-21.3,1.6-2.4,4.3-4.3,6.6-6.3,2.1-1.8,5.6-2.2,8.5-3,4.1-2.1,7.2-5.9,11.7-7.4,1.5-.5,3.1-.8,3.6-.9,3.3,1.4,5.6,2.6,8,3.4,2.9,.9,5.5,2.1,7.4,4.5,1.4,1.6,2.8,3.2,4.3,4.8,6.6-.5,8.4,4.6,10.6,8.8,.8,1.4,1.6,2.6,2.8,3.1,4.1,1.4,6.5,4.7,9.4,7.5,1.6,1.6,3.4,2.8,5.5,3.9,5.1,2.5,9.9,5.7,12.9,10.8,4.1,.7,8,1.4,11.3,2,3-.4,5.4-.8,8.3-1.2,.7-1.8,1.6-4,2.5-6.4,.9-.8,2.4-1.6,3-2.7,1.9-3.7,4.5-6.6,7.7-9.2,1.5-1.2,2.3-3.1,3.8-5.1,.7-.3,1.9-.8,3.1-1.2,.2-.5,.5-.9,.6-1.4,1.1-4.1,2.2-7.9,5.9-10.9,2.4-1.9,3.7-5.2,5.6-7.8,2.7-3.6,5.2-7.4,10.4-8.1,1.8-.3,3.4-2.3,4.3-2.9,2.9-3.7,5.1-6.5,7.3-9.4,2.3-1.5,4.7-3.2,7.2-4.7,3.5-2.1,6.9-4.3,10.5-6,1.7-.8,2.9-2,3.3-3.3,1-3.4,3.9-5.1,5.9-7.6,1.8-2.3,4.2-4.2,6.2-4.3,2.3-1.7,4-2.7,5.3-4,2.5-2.5,4.8-5.2,7-8,3.4-4.5,6.6-9.2,10.3-14.5-.3-2,1.4-3.8,3.4-5.3,1.8-1.3,3.9-2.3,5.8-3.4,10.1-1,14.9,5.8,18.9,11.7,3.2,2.7,5.6,4.3,7.5,6.4,1.6,1.8,3.3,3,5.4,4.1,3.6,1.9,7.2,3.7,10.6,5.9,2.9,1.9,4.2,4.9,4,7.7,1.7,2.1,2.9,3.8,4.3,5.4,2.3,2.7,4.7,5.3,7.1,8,.4,.5,1.2,.9,1.3,1.4,1.4,5.1,6,8.1,8.3,12.7,3.3,.9,5.4,3.5,7.3,6.1,1.7,2.4,3.5,4.8,4.6,7.5,.9,2.4,2.6,3.8,4.7,4.6,4.2,1.5,7.3,4.6,10.6,7.4,1.6,1.3,3.1,2.6,4.2,4.6,1.6,3,6.4,6.2,11.9,8.4,.3,.7,.7,1.6,.8,1.9,3.2,2.8,6,5.2,9.4,8.1,.4,.1,1.7,.2,3.2,.4,4.1,4.8,8.9,9,11.6,14.9,2.3,5,6.4,8.2,10.7,11.1,2,1.4,4.2,1.7,6.5,.5,1.2-.6,2.6-.9,3.5-1.8,3.2-3.6,6.9-6.5,10.5-10,6.6-1.4,13.5-9.1,15.8-17.2,2.6-1.8,5.4-3.7,7.8-5.3,1.9-2.4,3.6-4.2,4.9-6.4,1.3-2.2,2.1-4.6,2.7-7.2,.8-.6,1.5-1.2,1.7-1.4,1.1-2.3,1.9-4,2.7-5.8,.5-1,1.1-2.1,1.2-3.2,.4-4.8,4-5.9,7.6-7.1,1.2-.4,2.5-.4,3.8-.7,5.7-1.4,8.2-1.1,14.5,1.3,1.3,.5,2.9,.3,4.3,.5,2.1,.3,4.1,.6,5.8,.9,2.8,5.4,6.6,10.4,11.5,11.6,1.2,5.9,5.3,10,9.7,13.8,1.9,1.6,3.5,3.3,4.2,5.8,.8,2.8,2.3,5.4,3.8,7.9,1,1.6,2.6,2.8,3.8,4.3,2.8,3.4,5.8,6.6,8.2,10.3,1.2,1.9,1.3,4.6,1.7,7,1.4,3.4,3.7,5.8,7.1,7.6,3.3,1.7,5.6,4.8,9.3,6.1,.6,.2,1.1,.8,1.4,1.3,2.6,4.2,5.1,8.5,7.6,12.8,1,1.7,2.1,3.3,3.3,4.8,3.8,4.8,8,9.3,10.9,14.7,.5,1,1.4,2.1,2.4,2.4,4.1,1.3,7.4,4.1,11.4,5.8,2.9,1.2,5.6,3.3,8.1,5.3,2.6,2,4.9,4.3,8.3,4.7,1.2,.2,2.5,.9,3.5,1.7,4.4,3.6,9.8,4.8,15,6.4,4,1.3,8.2,2.2,11.7,4.8,.5,.4,1.2,.5,1.8,.6,3,.7,5.5,1.9,8.1,4,2.5,2,5.3,3.7,7.4,6.1,2.8,3.2,5.5,6.5,8.2,9.7,1.5,1.7,3,3.3,4.6,4.9,4,3.8,7.3,8.1,10.8,12.4,4,4.9,7.2,10.9,13.2,14.2,.8,.4,1.3,1.4,1.9,2.1,1.7,2.2,3.5,4.3,6.2,5.4,.3,.1,.7,.2,.9,.4,3.8,4.2,8.9,6.8,13,10.7,1.9,1.8,4,3.3,6,5,3,2.6,5.9,5.5,9,8,2.7,2.1,5.4,4.1,7.7,6.7,1.4,1.5,3.3,2.6,5.1,3.8,4.9,3.1,9.8,6.2,14.8,9.2,3.4,2.1,7,3.9,10.4,6,1.4,.8,2.5,2.1,3.8,3.2,7.8,1.9,15.6,3.9,23.2,5.8,1.1,2.4,1.9,4.8,3.2,6.7,2.3,3.1,4.8,6.2,9.2,6.8,1.2,.2,2.6,.8,3.5,1.6,2.3,2.1,4.9,3,7.9,3.3,1.6,.2,1.6,.3,2.8,2.9-2.4,2.2-4.8,2.4-7.8,.7-4.7-2.7-9.9-3.7-15.4-2.8-3,.5-5.7-.5-8.3-2.2-1.6-1.1-3.5-2.4-5.2-2.3-4.6,.3-7.8-3.3-12.1-3.5-.6,0-1.2-.5-1.7-.9-3.9-3.6-8.1-6.7-13.4-8.1-.8-.2-1.6-.6-2.1-1.2-2.2-2.1-4.1-1.3-5.7,.7-6.2-1.7-10.8-5.3-13.9-10.8-.5-.8-1.3-1.5-2-2-1.4-.9-2.5-1.9-3-3.7-.3-1.2-1.3-2.3-2.3-3-2.4-1.7-5.1-3.2-7.7-4.7-3.7-2.1-7.3-4.4-9.4-8.7-4,0-6.9-4-11.7-3.2-1.4,8.1,4.5,14,6.4,21.3-.3,.9-.7,2.2-1.1,3.4-3,1.4-6.1,2.7-9.5,4.2-.3-.3-1-.9-1.4-1.7-2.3-4.5-5.2-8.5-7-13.3-1.1-2.9-3.8-5.2-6.2-8.2-.1-1-.2-2.7-.3-3.5-4.2-6.5-7.9-12.4-11.7-18.2-1.5-2.3-2.9-4.6-4.6-6.9-2.2-3-4.1-6.2-5.7-9.6-1.4-2.9-3.8-5.3-5.7-7.9-.7-.9-1.3-1.8-2-2.8-3.3-4.6-6.6-9.3-9.9-13.9-1.1-1.5-2.4-2.7-5.1-2-1.1,2.4-2.3,5.2-3.6,8.3,1.2,3.9,2.1,7.9,3.7,11.8,.8,2,2.7,3.5,4.3,5,2.2,3.8,4.2,7.8,3.7,13-3.7-1.7-6.1-4.1-8.1-7q-1.8-2.7-5.5-3.7c-1.4,1.1-.9,4.6-4.5,3.5-.3-.5-.8-1.3-1.2-2.1-1-1.9-1.7-3.9-2.8-5.7-2.4-4.1-5-8-7.2-12.1-1.5-2.7-3-5.5-3.5-8.5-.8-4.4-3.8-7.1-6.3-10.2-1.2-1.5-2.4-2.9-3.2-4.8-1.1-2.3-2.7-4.2-4.9-5.9-2.3-1.8-3.7-4.8-6.8-6.6-.8,.5-1.8,1.1-3,1.9,3.7,7.6,7.2,14.8,11,22.6-.3,.8-.7,2.4-1.3,4.1-1,.6-2.1,1.2-3.4,2-2.6-1.7-5.2-3.4-8.4-5.5-.1,6.2,1.4,11.2,3.8,16,2.9,5.8,5.7,11.7,8.9,17.3,1.5,2.7,3.8,4.9,5.9,7.2,1.2,1.4,2.2,2.8,2.4,4.8-2,.6-3.6,.6-5.3-.5-1.9-1.2-4.3-1.8-6.1-3.1-5.1-3.8-10.9-7-13.3-13.6-.7-2-2.6-3.6-3.5-4.9-1.6-4.3-3.1-8.1-4.5-11.8-2.4-6.2-4.8-12.3-7.3-18.5-.7-1.6-1.6-3.2-2.1-4.9-1.4-4.1-2.6-8.3-4-12.5-1.1-3.1-2.5-6-3.6-9-.6-1.5-.9-3.1-1.2-4.6-.4-1.7-.6-3.4-1-5.4-1.5,.5-2.6,.8-3.7,1.1-.1,7.1,.2,14.1-.4,21-.3,3.4-.2,6.7-.1,10,.1,4.1,.3,8.3,.1,12.5-.1,2.7-.8,5.3,0,8.1,.5,1.8-.6,3.8-2.8,5-1.7-1.4-.6-3.4-1.2-5.1-2.8-2.3-4.2-5.3-4.8-9-.8-5.4-2-10.8-3.3-17.1,1.6-3.2-1.1-7.2-.9-11.4,.1-1.7-.5-3.5-.7-5.3-.1-.5,.2-1.1,0-1.5-2.8-5.4-2-11.4-3-17-.2-1.4-.9-2.8-1.3-4.2-.6-1.9-1.1-3.7-1.6-5.6-.6-2.7-1.3-3.7-3.8-5.2-1,.9-2,1.8-3.2,2.9-.7-2.9-1.3-5.3-1.9-7.6-.3-6.2-.7-12.3-1-18.5-1.3-1.7-2.4-3.6-3.2-5.8-1.1-2.8-2.7-6-6.5-6.8-1.2,1.8-2.2,3.4-3.5,5.3-3.3-3.1-4.1-7-4.2-10.7-.2-6.2-2.9-11.6-4.1-17.5-.2-1-9.8-12.1-10.8-12.3-5.5-1.5-10.9-4.7-16.8-1.3-2.4,3.2,1.3,6.4-.4,9.9-.7,.4-1.8,1-3.3,1.9-3.3,7.5-6.6,15.3-5,24.4-1.2,.7-2.3,1.3-3.4,1.9-1.3,3.5-1.9,7.5-6.2,9.7-.8-1.1-1.9-1.9-1.9-2.7-.1-1.6,.1-3.5,.9-4.7,3.5-4.6,3.4-10,3.8-15.3,.3-3.6,1.1-7.4-.7-10.9-5.5-.5-7.5,3.9-9.8,7.4-1.4,2.1-1.9,4.7-2.7,7.1-1.1,3.5-2.6,6.6-5.3,9.2-4,4-7.7,8.3-11.6,12.4-.8,.8-1.9,1.3-3,1.7-2.6,1-5.2,1.8-8.2,2.8-5.1,.1-10.6,.3-17,.4,3.6,5.1,6.8,9.5,9.9,14,1,1.4,1.6,3.2,2.7,4.6,2.9,3.7,6,7.3,9,11,1.6,1.9,3.3,3.6,4.6,5.7,1.9,3,2.5,6.4,.7,9.6,1.7,2.4,3.2,4.6,5.5,7.8,3.4,2.6,7.7,6,12,9.3-.1,.2-.2,.3-.3,.5,1.6,.3,3.1,.6,4.9,1,.2,3.6,.4,7,.5,10.4,3.3,4.2,7.4,7,11.6,9.8,1.8,1.2,3.5,2.8,4.9,4.5,3.3,4.3,7.3,7.8,12.4,9.8,2.6,1,5.1,2.2,7.6,3.3,1,.5,2,1.2,2.7,2.1,3,1.1,6.2,1.6,9.7,.8,1.6-.4,3.5,.2,5.3,.4,3.9,.4,7.7,1.2,11.6,1.3,2.9,.1,5.4,1.6,8,1.8,5.2,.5,8.1,2.9,9.2,7.7,.7,.4,1.3,.8,1.9,1,2.8,.7,4.9,2.1,6.5,4.6,1.6,2.4,4,4.2,5.9,6.2,5.6,.8,10.2,2.8,13.7,7.2,1.3,.1,2.8,.2,4.5,.3,1.7,2.9,4.9,3.8,7.7,5.5s6.3,3,6.5,7.4c-.9,.6-1.9,1.1-3.2,1.9-4-4.2-9.3-6.1-14.6-8.8-1.3-.1-2.9-.3-4.7-.4-.6-3.6-3.8-4.5-6.2-6-2.6,2.2-5.2,4.4-8.1,6.8-5.8-5.2-11.4-10.2-17.1-15.3-1.5,.3-3.1,.6-5.3,1.1-1.4-1.5-3-3.3-5.1-5.5-4.6-1-7.3-6.7-13.2-7.4-5-.7-9.8-2.9-14.9-3.8-1.1-.9-2.3-1.8-3.7-2.9h-7.2c-1.4-1.2-2.8-2.4-4.1-3.6-.1,.2-.1,.3-.2,.5-5.1-1.7-10.3-3.4-15.5-5.1-2,2.6-3.4,5.4-6.8,6-2.2-.3-4.6-.7-6.6-1-2.8,1.7-4.3,3.8-5,6.4-1.3,4.5-2.4,5.1-7,4-.6-.2-1.2-.3-2.2-.5-2.1,2.1-4.3,4.3-6.5,6.4-2.1,2-4.1,4.1-6.3,6-.8,.7-2,1.1-3.1,1.3-2.1,.5-4.2,.5-6.2,1.1-1.8,.5-3.5,1.4-5,2.5-2.4,2.3-4.7,4.6-7.1,6.8h-5.3c-.9-1.2-.4-2.4,.9-3.1,1.7-.8,2.4-2.1,3.2-3.5,.6-1,1.7-1.8,2.6-2.7,.4-.4,1.3-.7,1.4-1.1,.6-2.9,2.9-3.7,4.9-4.3,1.8-2.4,3.3-4.5,5.2-7.1,.4-2.5-1-6.3,2.6-9,.8,0,1.8-.2,2.7,0,4.5,1.1,7.8-.3,10.5-4,1.6-2.2,3.6-4.2,5.7-6.7,.1-.5-.1-1.7,.4-2.4,4.2-5,2.4-10.9,2.7-16.7-1.6-1.3-2.6-2.8-3.3-5-.8-2.5-3-4.5-4.6-6.8-.6-.8-1.5-1.3-1.8-2.2-1.5-4.4-3.7-8.1-7.5-11-1.5-1.2-2.2-3.4-3.1-5.3-2.5-2.5-5.6-4-8-6.9-2.1-2.4-5.3-5-9.7-3.9-3.3,3.3-5.6,7.1-5.3,12.3,.3,5.6-.1,11.1,.1,16.7,.3,6.5-1.6,12.1-5.7,17.1-1.4,1.8-2.6,3.7-4.3,6.1-2.1,1.4-4.7,3.3-7.3,5.1-1.6-.9-1.6-2.1-.9-3.4,1.1-2,2.3-3.9,3.3-6,1.3-2.6,2.3-5.4,3.6-7.9,.7-1.4,1.9-2.5,3.2-4.3v-10.1c-1.4-1-2.7-1.9-4.2-3-1.1,.8-2.3,1.7-3.4,2.5,.3,1.6,.6,3,1,4.9-2.1,.9-4.2,1.7-6.4,2.7-1,2.1-2.2,4.4-3.4,6.8-2.1,.7-4.2,1.4-5.9-1.5,2.7-4.3,8.8-6.7,6.6-13.2,4.5-2.6,6.2-6.2,6.3-10.8,1.9-2.6,4.5-4.6,4.1-8.8-.3-3.2,1.7-6.7-1.4-9.5,.8-3,.8-5.8,.1-8.6-.7-2.7-.8-5.5-1.3-8.5-.6-.8-1.4-1.8-2.2-2.8,.4-3.9,.3-7.7-2.1-11.1,.2-1.3,.5-2.7,.8-4.4-3.1-3.6-6-7.6-6.1-11.9-2.6-1.9-4.4-3.4-6.4-4.7-1.2-.8-2.5-1.5-3.7-2.1-3.3-1.6-5.8-4-7.5-7.3-.8-1.5-2-2.9-3.3-4.1-2.8-1.3-4.9-2.7-7.1-4.5Z"/><path class="cls-2" d="M1028.3,435.5c2.1,2,4,2.6,6.2,2.5,2.8-.1,5.6-.1,8.3,0,3.7,.1,7.4,.3,11.7,.6,2.4-2.2,2.9-5.9,4.1-9.2,1.1-3.2,1.6-6.6,2.6-9.9,.8-2.6,1.9-5.2,2.8-7.8,.6-1.7,1.1-3.4,1.6-5.1,.1-.3,0-.7,.1-1,2.6-3.5,2.6-7.9,4-11.8,.7-2,1.7-4,3.2-5.4,1.3-1.2,3.3-2,5.1-2.4,2-.4,4.2-.1,6.7-.1,4.1,3.6,6.4,8.3,7.6,13.7,.3,1.4,.9,2.7,1.4,4,.3,.8,.8,1.4,1.1,2.2,2.1,5.6,4.1,11.3,6.3,16.9,1.8,4.7,3.7,9.4,5.7,14,1.4,3.3,1.2,6.3-.8,9.2-2.6,3.9-9.3,4.1-11.7,.2-1-1.6-1.5-3.6-2.1-5.4-.5-1.4-.7-2.8-1.1-4-3.9-1.8-7.4-2-11.3-1-1.8,.5-3.8,.1-5.7-.1-3.2,.7-4.8,2.9-5.5,6-1.8,7.5-6.4,9.1-13.5,4.5-3.8,3.2-8.6,2.7-13.3,2.8-1.8,0-3.5,.4-5.3,.6-1.1,.1-2.3,.3-3.4,.2-4.4-.3-8.8-.6-13.1-1-3.2-.3-5-2.3-5.4-5.4-.2-1.1-.1-2.3-.1-3.4,0-12.6-.1-25.2,0-37.8,0-3.9,.1-7.7,.2-12.2,.9-.9,2.1-2,3.4-3.3,2.1,.4,4,.8,5.7,1.2,3.9,6.8,5.6,13.5,3.8,20.9-.2,.6-.2,1.3-.1,1.9,1.7,7.3,.7,14.6,.9,22,0,.9-.1,1.9-.1,2.9Zm46.1-13.6c3.7,2.1,6.9,1.4,10.3,.8,2.1-4.7-2.2-7.6-3-11.4-.2-1.2-1-2.1-2.7-1.4-1.4,3.7-2.9,7.6-4.6,12Z"/><path class="cls-2" d="M946.3,388.9c11.2,4.6,12.9,13.6,12,24.2-2.7,2.9-5.5,6-8.6,9.4-.1,2.7,2.2,4.5,4.1,6.5,2.6,2.5,5.3,4.9,5.9,8.7,.4,2.4,.6,4.8,1,7.2-1.3,1.4-2.5,2.6-3.6,3.8h-7.8c-3.2-1.8-4.3-4.9-5.6-7.9-.8-1.9-1.4-4.1-2.6-5.8-3-3.9-6.4-7.6-11.8-8.7-2.1,3.2-2.8,6.3-1.8,9.8,1.4,5.2-.8,9.4-3.7,13.7-1.8,0-3.5,.1-5.1,0-3.7-.2-5.2-1.8-5.6-5.5-.3-3.1-.6-6.1-.8-9.2-.1-.8-.1-1.7,0-2.4,1.3-6.5,1.3-12.9,.1-19.4-.4-2.1,.6-4.5,.6-6.7,.1-3.9,0-7.9,0-12,1.4-1.5,2.9-3,4.2-4.5,10.1-1.9,19.8-1.6,29.1-1.2Zm-19,23.9c.6,.2,1.1,.5,1.5,.5,2.4,.1,4.9,.1,7.3,0,5.1-.1,6.5-1.2,8.7-6.9-1.3-1.7-2.8-3.8-4.1-5.6-4.9-.5-9.1,.2-13.4,1.8v10.2Z"/><path class="cls-2" d="M517,425.4c2.8,4.3,5.4,8,7.6,11.9,2.7,4.8,2.5,4.9,2.2,11.3-.9,.6-2,1.9-3.2,2-2.4,.2-5,.1-7.1-.8-3-1.3-5.4-3.8-6-7.3-.4-2.6-1.7-4.5-3.4-6.3-1.7-2-3.1-4.2-4.8-6.6-1.1-.4-2.4-.8-4.2-1.4-.7,.9-2,1.8-2.2,2.8-.3,1.9-.3,4,.2,5.8,.9,3.2,.4,6.1-.6,9.1-1.6,4.4-4.2,5.6-8.8,4-1.3-.5-2.5-1.3-3.2-1.7-.8-3.3-1.5-5.9-2.4-9.8,.5-2.3,1-5.8,.1-9.7-.7-2.8,.2-6.1,.8-9.1,.3-1.7,.3-3.1,0-4.7-.2-1.2-.2-2.7,.2-3.9,.5-1.5,.3-2.7-.1-4.2-1-3.9,.2-7.8,1.5-11.4,1.1-3.2,5.6-5.2,9.4-4.3,3.7,.9,7.4,.4,11.1,.2,3-.2,6.3-.8,9.3,1,1.1,.7,2.4,1.1,3.7,1.3,3.2,.5,5,2.5,5.9,5.2,.7,2.1,1.9,4,2.5,6.2,.9,3.6,.2,6.8-.6,10-.7,2.8-1.7,5.5-4.7,7.1-1.5,.7-2.3,2.3-3.2,3.3Zm-5.9-19.3c-4.9-2.7-9.8-3.9-15.2-1.6-.4,3.5-.8,6.9,.5,10.6,1.9,.1,3.8,.2,5.7,.3h5.5c1.6-1.3,2.8-2.3,3.6-2.9-.1-2.7-.1-4.5-.1-6.4Z"/><path class="cls-2" d="M567.6,424.7c2,3.7,3.5,6.4,5,9,.8,1.4,1.8,2.7,2.8,4,3.3,4.5,3.4,8.2,.6,12.6-2.8-.2-5.7-.4-8.7-.6-1.8-1.5-3.6-3-5.6-4.6-1.2-5.2-5.6-12.8-9.6-16.7h-5.6c-1.4,1.5-.7,3.4-.8,5.1-.3,4.4,.7,8.8-1,13.1-.5,1.4-1.4,2.8-2,4h-7.1c-4.7-2.3-1.5-8-4.5-10.9,.7-3.4,.6-6.6,.4-9.9-.4-4.4,.5-9,.9-13.5,.1-2.1,.6-4.3,.1-6.3-1.2-4.6-.5-9.1,.5-13.5,.6-2.8,2.6-4.6,5.5-4.8,4.5-.4,9.1-1.2,13.6-.8,5.4,.5,11,.5,16.1,2.9,.9,.4,1.7,1,2.4,1.7,3.5,3.6,5.9,7.8,6.4,12.8,.4,5-2.2,9.1-5.2,12.7-1.3,1.6-3,2.7-4.2,3.7Zm-9.4-9.5c1.2-1.5,2.7-3.4,4.2-5.1-.6-1.9-1.2-3.4-1.7-4.8-5.1-2.3-10.2-1.8-15.4-1.3-.9,3.7-1.1,7,0,10.1,4.1,.4,7.9,.7,12.9,1.1Z"/><path class="cls-2" d="M698.5,412.8c.5,4.5,.9,8.2,1.4,11.9,.1,.5,.1,1-.1,1.5-2.5,5.8-4.7,11.8-7.6,17.4-2.6,4.9-7.3,7.2-13,7.2-6.5,.1-13.1,.3-19.6,.5-4.2,.1-5.7-.9-7.2-5-1.2-3.4-2.5-6.7-1.1-10.4,.2-.7-.2-1.5-.2-2.3-.2-5.6,.5-11.2-.1-16.8-.1-1.5,0-3.1,0-4.7,0-4.5,.1-9,.8-13.4,.8-5.5,3.8-7.7,9.4-7.9,2.3-.1,4.6,.1,6.9,0,1.8-.1,3.5-.3,5.9-.5,3.2,1,7,2.3,10.9,3.5,2.8,.8,4.9,2.5,6.4,5,1.6,2.7,3.8,5,4.2,8.6,0,2,2.1,3.8,3,5.4Zm-21.7,27c.9-1.1,1.9-2.3,2.9-3.6,2.2-3,4.4-6.1,4.5-10.1,.1-3.9,0-7.8,0-11.8,0-2-.5-3.8-2.3-5.1-.9-.6-1.3-1.9-2.1-2.6-1.2-1-2.5-2.2-3.9-2.7-2.1-.7-4.4-1-6.7-1.3-1.4-.1-2.8,.3-4,.4-.3,1-.6,1.5-.6,1.9v29.4c0,2,.7,3.8,2.4,5.3,2.9,.2,5.8,.2,9.8,.2Z"/><path class="cls-2" d="M819,433.2c.7-2.2,1.6-4.9,2.4-7.1,3-1.5,5-.5,6.5,1,1.6,1.6,2.9,3.5,3.8,5.6,4.1,8.5,11.8,9.2,17.8,1.2-.6-1.4-1.2-3.1-2.2-4.5-.8-1.1-2.3-2.7-3.3-2.5-4.1,.5-7.3-1.9-11-2.7-4.5-1-8.3-4-11-7.6-3-4-3.9-8.9-2.5-13.9,1.9-7,2-7,8.1-12.8,4.2-.3,9-.6,13.8-1,1.1-.1,2.4,.3,3.4-.1,5.3-1.6,9,1.5,11.9,4.8,2.6,2.9,4.7,6.4,3.7,11-.6,3-1.7,4.8-4.7,5.3-.6,.1-1.2,.4-1.8,.7-2.9-.7-5.1-2-5.9-5.2-.3-1.2-1.8-2.3-2.9-3.2-1.4-1.1-2.9-2.1-4.8-3.4-1.5,.4-3.4,.8-5,1.2-4.4,5.2-3.1,6.3,1.7,10.4,2.9,.4,6.1,.5,9.2,1.3,5.7,1.5,11.5,3.6,14.7,8.7,3.5,5.5,4.4,11.9,2,18.3-1,2.7-2.9,5-4.5,7.6-.9,.3-2.1,.4-2.7,1-3.6,3.6-8.1,3.4-12.7,3.7-6.1,.3-11.6-.9-16.9-3.8-2.2-1.2-3.4-2.9-4.2-5.1-.8-2.7-1.7-5.3-2.9-8.9Z"/><path class="cls-2" d="M273.4,391.7c3.3,0,6.7,.1,10.1,0,2.1-.1,4.2-.6,6.3-.6,1.9,0,3.9,.1,5.7,.5,2.1,.4,4,1.6,6,1.9,3.7,.4,5.8,2.8,7.3,5.7,2.6,4.9,4.8,9.9,4.8,15.7,0,2.6,1,5.2,.8,7.7-.4,4.8-1,9.7-2.1,14.4-.9,3.7-4,6.2-6.6,8.8-3.2,3.2-7.2,4-11.6,4-5.6,0-11.1,.1-16.7,0-6.3,0-8.9-2.6-9.1-8.9-.1-3.6-.1-7.2-.1-10.8,0-8.7,0-17.3,.1-26,0-1.6,.5-3.2,.5-4.8,.3-3.2,2.6-5.1,4.6-7.6Zm9.7,12.7v23.8c0,2.3-.1,4.6,.1,6.9,.2,2.8,1.6,4.3,4.1,4.8,3.4,.6,10-2.4,11.3-5.5,1.8-4.3,3.9-8.7,3.2-13.6-.3-2.2-.9-4.5-.9-6.7,.2-4.7-2.1-7.7-6-10.3-3.5,1.1-7.5-2.7-11.8,.6Z"/><path class="cls-2" d="M966.3,393.7c4.3-4.7,8.7-5.1,13.5-5,6,.1,12.1,.7,18.1-.8,1.2-.3,2.6,0,4.2,0,1,1,2.2,2.1,3.4,3.2,.3,3.7,1.2,7.4-3.4,8.7-2.7,.2-5.4,.5-8,.6-1.6,0-3.2-.3-4.8-.5-3,.8-6.2,1.6-9.4,2.4-1.2,2.3-.7,4.7-.2,7.5,3.8,1.3,7.9,1.2,11.5,.4,4.8-1,9-.5,13.2,1.8,2.9,5.9,.3,10.6-6.4,11.2-3.7,.3-7.5,0-11.3,.1-1.6,0-3.2,.2-4.6,.3-1.7,7.5-3.2,9.6,.6,14.4h4.3c5.4,0,10.8-.1,16.2-.1,2.8,0,2.8,.1,5.3,2.7,.4,5.8-1.3,8-6.8,8.2-9.6,.4-19.2,.7-28.9,1-4.9,.1-6-.9-7.1-5.5-.3-1.3-.3-2.6-.3-3.9,0-13.4,0-26.9,.1-40.3-.1-2.4,.6-4.8,.8-6.4Z"/><path class="cls-2" d="M709.7,417.9v-4.3q3-4.5,3.1-10.4c4.6-2.7,2.4-9.6,7.2-13.2,3-.1,5.9-1.5,9.3-.4,2.1,.7,3.3,1.7,4.3,3.6,4.1,7.8,7.1,16,8.7,24.7,.1,.6,.4,1.2,.7,1.8,1.9,4.1,3.7,8.3,5.6,12.4,1.7,3.8,2.5,7.7,2.5,11.8,0,1.1-.3,2.3-.7,3.3-1.3,3.1-3,4-6.2,3.4-1.4-.3-2.8-.8-4.2-1.1-1.9-3.8-3.8-7.5-5.5-11-2.7-.2-4.9-.5-7.1-.4-2.9,.1-5.8,.4-8.6,1.1-1.2,.3-2.3,1.7-2.9,2.9-1.2,2.3-2.1,4.7-3,6.7-2.7,2.6-5.5,2-8.4,1.9-1.1-1-2.1-2-3.3-3.1-1.1-6-.4-11.5,3.1-16.7,.9-1.3,1.2-3,1.5-4.6,.8-3,1-6.3,3.9-8.4Zm15.7-6.1c-1.6,5.1-4.2,9.1-3.6,13.8q4.9,.8,7.9-.5c.2-4.7-2-8.5-4.3-13.3Z"/><path class="cls-2" d="M777.4,450.7c-3.8-2.8-5.4-6-4-10.3,.2-.7,.3-1.6,.1-2.4-1.2-6.8-1.2-13.6,0-20.4,.1-.6,0-1.3-.1-1.9-1.3-6.7-.8-13.3,.5-19.9,.5-2.6,2-4.4,5.1-5.2,4.9-1.2,9.7-1,14.5-.3,1.4,.2,2.9,.3,4.3,.1,4.7-1,9.4-1.1,14.2,.9,.6,.9,1.2,2,1.9,3.2-.8,2.2-1.6,4.3-2.6,6.8-2,.4-4,1.1-6,1.2-4.4,.2-8.8,0-13.3,.1-1.7,.1-3.4,.5-5.3,.9v7.3c1.5,.2,2.8,.5,4,.6,4.7,0,9.5-.1,14.2,0,5.9,0,7.8,1.9,7.8,8.2-.6,.7-1.3,1.7-2.1,2.5-.7,.7-1.4,1.3-2.1,2-6.9,.7-13.8-.8-20.6,1.5-1.7,1.8-1.7,4-1.2,6.3,.4,2,.6,4.2,.9,6.4,2.9,2.6,6.4,1.4,9.7,1.4,4.1-.1,8.1-.6,12.2-.6,1.7,0,3.3,1,4.9,1.5,.4,2.5,.8,4.5,1.2,6.7-1.7,3-4.7,3.3-7.6,3.4-10,.1-20.2,0-30.6,0Z"/><path class="cls-2" d="M607.5,389.9c1.5,1.6,2.9,3.2,4.3,4.8,.6,.7,1.4,1.5,1.7,2.3,1.4,4,2.6,8,3.8,12,.3,1.1,.4,2.4,1,3.2,1.9,2.7,2.7,5.9,3.4,9,.6,2.5,1.6,4.8,2.8,7.2,2,3.8,3.3,8.1,4.4,12.3,.8,3.1-.3,6.1-2.3,8.7-5.3,2.5-9.2,1-11.2-4.3-.9-2.4-.9-5.2-3.5-6.7-5.7,.2-11.6-1.1-17.7,1.6-.4,1.3-1,3.2-1.5,5-1.2,4.6-2.8,5.9-7.6,5.9-1.4,0-2.9-.2-4.1-.3-3-4.8-1.5-9.6-.7-14,.8-4.1,2.8-7.9,4.2-11.9,.5-1.5,.8-3.1,1.2-4.7,.3-1.2,.6-2.5,1.1-3.7,1.6-3.5,3.3-7,4.9-10.5,.3-.6,.7-1.2,.6-1.8-.3-4.6,1.8-8.4,4-12.3,3.3-2.8,7-1.8,11.2-1.8Zm-9.2,36.4c4-.7,7.4,1.3,10.3-2-1.4-4.1-2.4-8.3-5.4-12.5-2.6,4.6-3.2,9.1-4.9,14.5Z"/><path class="cls-2" d="M424.5,445.4c-2.7,1.4-5,2.6-8.4,4.4-4.3,0-9.9,.5-15.4-.2-4.9-.6-9.5-2.5-11.4-7.9-.5-1.5-1.6-2.8-2.6-4.4v-7.9c.5-.4,1.2-.9,1.8-1.3,4.2-2.7,6.1-2.4,8.5,2.1,2.6,4.9,6.3,8.2,11.7,9.9,2.3-1.7,4.5-3.3,6.8-5.1v-6.1c-4.3-2.2-8.7-4.2-13.9-5-3.4-.5-6.4-3.6-9.7-5.3-4.6-2.3-3.6-7.3-5.6-10.9-.2-.3-.1-1.1,.2-1.4,2.3-3,1.9-6.8,3.1-10.2,2.1-3,5-5,8.7-5.9,.3-.1,.6-.3,.9-.3,3.8,.2,7.6,.4,11.4,.6,3.1,.2,6.2,.4,9.1,1.7,6.9,3.1,8.9,12.4,3.5,18.1h-5.2c-2.1-2.5-4.5-5.4-6.9-8.2-2.7-3.1-4.9-3.6-8.5-2.1-.8,1.9-1.6,3.8-2.4,5.7,2.8,4.4,7.2,5.8,11.7,6.6,5.2,.9,9.7,2.1,12.6,7.1,1.3,2.2,3.3,3.8,4.1,6.5,1.5,5,.7,9.6-1.6,14.1-.8,1.8-1.6,3.6-2.5,5.4Z"/><path class="cls-2" d="M154.4,412.5v-11c2.2-3.3,4.4-6.7,6.7-10.1,7.3-2.6,14.9-1.9,22.3-1.4,6.1,.4,8.4,4.4,9.4,11.3,.3,1.8,0,3.6,0,4.9-1.8,3.7-4.5,3.5-8,2.9-1.1-1.5-2.6-3.2-3.8-5q-2.7-3.9-7.7-5.3c-.4,.1-.9,.2-1.3,.4-2.4,1.2-4.9,2.6-4.7,5.6,.3,2.9,2.9,4.3,5.3,5.2,2.3,.9,4.6,1.6,7,2,8.8,1.7,13.9,7.1,16.5,15.5,1.2,3.8,.2,7.1-1.1,10.4-.9,2.2-2.4,4.2-3.7,6.5-2.3,1.3-4.7,2.7-7.7,4.4-4.6,0-9.8,.3-15-.1s-9.8-2.4-12.1-7.7c-1.3-3-2.7-5.9-4-8.7,1.4-2.9,2-6,5.8-6.8,1.4,.3,3.1,.7,5.1,1.2,2,3.8,3.7,7.9,7.5,10.5,1.2,.8,2.5,1.3,4,2.1,2.4-1.9,4.7-3.6,6.7-5.2-.1-5.1-1-6.4-5.4-7.9-2.4-.8-5.1-1.2-7.5-2.1-5.8-2.3-10.2-6.3-14.3-11.6Z"/><path class="cls-2" d="M476.2,449.5c-2.4,.4-4.8,1.2-7.1,1.2-6.5,.2-13.1,.2-19.7,0-3.2-.1-6.5-.6-9.7-1-2.5-.4-4.3-2-4.2-4.7,.1-3.5-2.2-7-.2-10.5-.8-7,.8-14,0-20.9-.7-5.7,.7-11.3,.1-16.7q2.8-4.2,7.1-5.7c5.5-.2,10-.4,14.5-.4,4.4-.1,8.8,0,13,0,2.1,2.1,3.9,3.9,5.9,6-.6,1.8-1.2,3.6-1.9,5.7-2,.1-3.7,.2-5.5,.2h-14.7c-4.7,0-6.2,2-5.1,6.5,.2,.9,.6,1.8,1.1,3.2,1.3,.2,2.9,.8,4.4,.8,5-.2,10-.7,14.9-1,1.9,1.8,3.5,3.2,4.7,4.3-.6,6.2-3,8.7-8,8.7-5.2,.1-10.5,0-16.2,0-.6,4.7-.3,9.2-.1,14.2,1.6,.2,3,.6,4.4,.6,5.2,.1,10.5,0,15.7,0,6.4,0,7.8,1.9,6.6,9.5Z"/><path class="cls-2" d="M122.9,389.8c1.3,0,2.9-.2,4.5,0,3.3,.6,6.4,1.6,7.8,5,3,7.6,6.1,15.1,8.9,22.8,1.2,3.2,1.5,6.6,2.5,9.9,.8,2.6,1.8,5.3,3.1,7.7,1.7,3.2,2.5,6.3,1,9.8-.3,.7-.3,1.6-.4,2.6-1.2,.7-2.4,1.4-3.3,1.9-4,.4-8.1-2.6-9-6.7-.5-2.5-1.6-4.2-3.7-5.6-3.2-.3-6.6-.6-10.7-.9-.7,.2-2.2,.6-3.5,1.2-2,.9-3.5,2.1-4,4.5-.4,1.8-1.5,3.6-2.8,5-2.8,3-7.5,2.1-10.6-1.7-.5-.6-.7-1.4-1-2.1,1.3-7.6,3.9-14.8,6.8-21.8,2.6-6.3,5.2-12.5,7-19.1,.5-2,1.5-3.9,2.3-5.8,.9-2.5,2.3-4.9,5.1-6.7Zm8.6,35.2c.7-3.9-2.2-6.8-2.2-10.3,0-.8-.8-1.7-1.4-2.8-2.1,2.8-3.5,4.5-4.8,6.3,0,2.4-.5,4.9,1.6,6.8h6.8Z"/><path class="cls-2" d="M316.6,445.2c1.3-8.3,3.9-15.6,7.1-22.7,.7-1.6,.7-3.5,1.3-5.1,.8-2.4,1.6-4.8,2.4-7.2,.4-1.1,.5-2.3,1.2-3.2,2.1-2.6,2.6-5.5,2.8-8.4,1.8-2.8,3.5-5.3,5.1-7.7h8.7c2.9,1.3,3.6,4.1,4.6,6.6,1.2,3,1.8,6.2,4.1,8.8,.4,.5,.7,1.2,.8,1.8,1.7,9.1,6.3,17,9.8,25.4,2.9,6.8,3,6.6,.9,14.8-4.3,3.2-8.1,1.1-12.2-1.5-.6-2.5-1.3-5.2-1.9-7.9-5.2-2.5-10.8-1.7-16.2-1.7-2.7,1.8-4.4,3.9-4.8,7.1-.2,2.2-1.3,4-3.6,5.5h-7c-.9-1.6-2.1-3.2-3.1-4.6Zm26.1-34.4c-.3,0-.7-.1-1-.1-1.6,4.6-4.2,8.8-4.4,13.8q4,2.1,8.1-.3c-.5-2-1.1-4.1-1.6-6.3-.4-2.4-.7-4.8-1.1-7.1Z"/><path class="cls-2" d="M245.2,448.7h-8c-.9-1.3-2-2.9-3-4.5-.9-1.5-1.5-3.2-2.5-4.7-1.3-2.1-3.2-3.3-5.7-3.4-2.6-.1-5.2-.1-7.9,0s-4.5,1.6-5.5,4.1c-1.1,2.7-2.2,5.4-3.2,7.8-5.2,2.7-9.3,1.5-11.2-3-.4-1-.7-2.3-.4-3.3,1.6-4.6,3.4-9.1,5.6-13.4v-5.9c.2,0,.4,.1,.5,.1,1.1-3.2,2.1-6.4,3.4-9.5,1.5-3.7,3.3-7.3,5.7-12.6,0-2.9,1.9-6.9,5.5-10.6,1.8,0,3.7-.2,5.6,0,3.2,.4,6,2.1,6.3,5.3,.4,4,2.9,6.9,4,10.4,.7,2.3,1.7,4.6,2.5,6.9,2.6,7,4.9,14.2,7.9,21.1,2.3,5,2.5,9.7,.4,15.2Zm-25.3-24.1q4,.7,7.1-.3c-1.5-3.9-3.2-7.8-3.1-12.2,0-.4-.7-.8-1.1-1.3-2.9,4.4-4.6,8.6-2.9,13.8Z"/><path class="cls-2" d="M97.2,413c-4.6,1.6-7.6-.3-9.4-4s-4.6-6.3-7.4-8.9c-6.5-.8-11.4,2.7-12.4,8.9-.8,5-1.9,10-1.8,14.9,.1,5,2.6,9.4,6.7,12.5,1.3,1,2.7,1.7,4,2.5,6.1-.9,8.5-5.5,10.4-10.1,.9-2.3,2-4,3.9-5.5h5.4c.5,.7,1.7,1.9,2.5,3.3,.6,1.1,1.2,2.4,1.2,3.6-.1,7.4-6,15.5-12.9,18.1-.2,.1-.3,.2-.5,.2-7.9,0-16,1.7-23.6-2-2.2-1.1-3.5-2.7-4.3-5-.6-1.8-1.2-3.8-2.4-5.2-2.9-3.2-3.5-6.8-3.5-10.8,0-2,.2-4,0-5.9-1-7.9,2.3-14.5,6.3-20.9,.9-1.4,1.6-2.8,2.2-3.8,6.9-5.4,14.6-5.6,22.3-5,7.5,.7,14.6,8,15.5,15.5,.2,2.7,.1,5.3-2.2,7.6Z"/><path class="cls-2" d="M892.8,448.1c-4.6,2.2-6.1,2.2-10.5,.5-1.4-2.5-3.2-4.9-1.9-8.5,.6-1.6-.6-3.8-.6-5.7-.1-8.2-.1-16.4,0-24.5,0-1.1,.5-2.2,.5-3.4,0-1.5-.3-3-.5-4.7h-13.5c-2.8-2.3-2.2-5.2-2.2-8.2,.9-1,2-2.2,3.2-3.5,3.7-.4,7.4-1.2,11.1-1.1,4.7,.2,9.3,1.2,14,1.6,1.7,.2,3.6,0,5.3-.4,3.3-.6,6.4-.6,9.6,0,2.1,4.9,1.7,8.1-1.2,11.1-3.9,.6-7.7,1.1-11.2,1.6-.5,.7-.8,1-.8,1.2,.1,8.1,.2,16.3,.3,24.4,0,.3,.3,.7,.2,.9-1.6,4.2,.4,8.4,0,12.5-.3,2.3-1.3,4.4-1.8,6.2Z"/><path class="cls-2" d="M371.3,502.5c1.9-8.1,2.2-15.2-.2-23.1,.1-.6,1.3-1,2.7-1,3.4,0,6.9-.2,10.3,0,5.9,.4,10.2,5.1,10.3,10.9,.2,9.4-4.7,14.5-14.1,14.6-1.6,0-3.3,.2-4.9-.1-1.5-.2-2.9-.9-4.1-1.3Zm8.2-19.9c0,5.9-.2,11.5,.2,17.1,3.6-.1,3.6-.2,4.9-1.3,3.1-2.7,3-6.3,2.7-9.9-.3-4.4-2.3-5.9-7.8-5.9Z"/><path class="cls-2" d="M521.5,479.2c.9-.3,2-.9,3.2-.9,3.1-.1,6.2-.2,9.3,0,6.4,.3,10.7,5,10.8,11.4,.1,8.8-4.8,14-13.6,14.1-1.8,0-3.6,.2-5.4-.1-1.5-.2-2.9-.9-4.2-1.3,2.1-7.7,2.3-14.9-.1-23.2Zm8.8,3.4c-.8,6.1-.7,13.8,.3,17,1.8,.6,3-.1,4.4-1.3,3.1-2.7,3-6.3,2.7-9.9-.3-4.3-2.3-5.8-7.4-5.8Z"/><path class="cls-2" d="M591.7,484.2c-2.3-.7-4.5-1.4-6.4-1.9-2.8,1.1-2.1,3.2-2.1,4.9,2,1.9,3.9-.1,5.6,0q2.4,3.3,.2,6.8c-1.3-.3-2.7-.6-4-1-2.4,1.4-2.1,3.2-1.2,5.1,3.5,2.1,6.3-.7,9.4-1,2.1,2.5,2,4.5-.6,5.7-1.4,.7-3.1,1-4.7,.9-4.4-.3-9,1-13.4-.9,2.5-8,2.7-15.5,.1-23.3,.4-.3,1-1.2,1.7-1.2,4.7-.1,9.5-.3,14.2,0,1.1,.1,2.5,1.5,3.2,2.6,.6,1.4-.3,2.6-2,3.3Z"/><path class="cls-2" d="M432.9,488.3c2.3-.4,4-.7,5.6-1,2.3,2.2,2.3,4.3,.1,6.7-1.4-.3-2.9-.5-4.4-.8-2.3,1.6-1.8,3.3-1,5.1,3.7,2,6.5-.9,9.6-1,1.7,2.5,1.6,4.3-.5,5.6-.9,.6-2.1,.9-3.2,1-4.1,.1-8.2,.1-12.3,0-1,0-2-.7-2.8-1,2.6-7.8,2.3-15.2,.2-23.5,.2-.9,1.7-1,3.2-1h13q3.4,3,1.2,6c-2.4-.6-4.8-1.3-7.1-1.9-2.5,1.2-1.9,3.1-1.6,5.8Z"/><path class="cls-2" d="M491.5,492.1v6.9c-3.2,5.5-8.1,5.5-13.1,4.6-3.6-.7-4.6-2.6-4.3-6.9,1.3-1.2,2.7-.9,3.9,.2,.9,.7,1.6,1.7,2.5,2.3,1.9,1.3,3.1,.9,5-1.6-.3-2.3-2.2-3-3.9-4-1.7-1-3.5-1.8-5-3.1-3.7-3.3-3.8-6.5-.5-10.2,.5-.6,1.2-1.1,1.9-1.8,3.8-.6,7.6-.5,11.3,0,1.5,2.4,1.4,4.3,.5,6.3-3.5,1.1-5.2-3.9-9-2.1-.1,.7-.2,1.6-.3,2.7,3.9,2.2,7.4,4.4,11,6.7Z"/><path class="cls-2" d="M338.2,497.5c-1.4-1.6-2.3-2.6-3.4-3.9l3-3c1.3,1.2,2.3,2.1,3.6,3.2-1.1,1.2-1.9,2.2-3.2,3.7Z"/><path class="cls-2" d="M848.1,490.6c1.3,1.2,2.3,2.2,3.5,3.3-1.1,1.2-1.9,2.1-3.1,3.4-1.2-1.3-2.3-2.4-3.6-3.8,1.2-1.1,2.1-1.9,3.2-2.9Z"/></g><g><path class="cls-1" d="M669.99,491.72c0,4.32,.06,6.69,.19,7.1,.22,.7,.75,1.3,1.59,1.78s1.26,1.08,1.26,1.78c0,.47-.26,.74-.79,.83-.77,.12-2.37,.18-4.8,.18h-.76l-1.51,.02h-.39c-1.28,0-2.07-.08-2.36-.25s-.45-.47-.45-.91,.43-.93,1.29-1.47,1.41-1.19,1.64-1.96c.14-.46,.21-2.7,.21-6.74s-.13-6.34-.38-6.9-.88-.89-1.87-.98-1.49-.36-1.49-.79c0-.59,.43-1.08,1.28-1.49,2.92-1.42,4.99-2.13,6.22-2.13,.62,0,1.01,.25,1.16,.74,.05,.15,.07,1.11,.07,2.88l-.11,4.11v.77l-.02,.37v3.06Z"/><path class="cls-1" d="M708.48,503.65c-1.71,0-2.57-.48-2.57-1.44,0-.49,.4-.88,1.21-1.18,.05-.02,.74-.13,2.07-.33,2.41-.36,4.08-1.41,5.01-3.13,.29-.54,.44-.97,.44-1.29s-.08-.55-.23-.69c-.39-.36-1.07-.54-2.04-.54h-1.51c-.82,0-1.71-.19-2.65-.56-1.79-.7-3.04-1.92-3.74-3.64-.39-.91-.58-1.93-.58-3.06,0-2.23,.75-4.12,2.25-5.68,.68-.7,1.53-1.27,2.54-1.7s2.11-.64,3.28-.64h.47c1.21,0,2.37,.27,3.48,.82s2.02,1.27,2.71,2.19c1.37,1.82,2.06,4.19,2.06,7.12,0,1.83-.27,3.58-.81,5.26-1.08,3.38-3.06,5.77-5.94,7.19-1.8,.88-3.5,1.32-5.08,1.32h-.37Zm3.53-10.9h.3l.14-.02c.97,0,1.76-.3,2.36-.9s.9-1.51,.9-2.74v-.93c0-1.84-.37-3.29-1.11-4.35s-1.59-1.59-2.57-1.59h-.3c-1.05,0-1.85,.49-2.37,1.48s-.79,2.11-.79,3.38v.47c0,1.54,.33,2.79,1,3.75s1.48,1.45,2.44,1.45Z"/><path class="cls-1" d="M753.65,489.47c-1.01-1.01-1.51-2.37-1.51-4.09s.71-3.16,2.13-4.32,3.05-1.74,4.89-1.74h.81c1.83,0,3.42,.53,4.76,1.58s2.02,2.36,2.02,3.9c0,1.01-.18,1.85-.54,2.51s-.87,1.34-1.52,2.01-.98,1.06-.98,1.15,.39,.46,1.16,1.09c1.9,1.56,2.85,3.19,2.87,4.9v.84c0,.76-.19,1.54-.58,2.32-.82,1.69-2.21,2.87-4.17,3.55-1.07,.38-2.06,.56-2.99,.56h-.83c-1.16,0-2.23-.18-3.22-.53-1.92-.68-3.26-1.79-4.01-3.32-.4-.82-.6-1.66-.6-2.53v-.37c0-1.77,.89-3.4,2.67-4.9,.77-.66,1.16-1.03,1.16-1.12s-.17-.28-.52-.58-.68-.61-1.01-.94Zm9.88,8.46v-.58c0-1.08-.45-2.06-1.34-2.95-1.63-1.63-2.91-2.44-3.83-2.44h-.11c-.55,0-1.18,.57-1.88,1.71-.43,.7-.65,1.41-.65,2.13v.88c0,1.23,.47,2.31,1.41,3.25s1.87,1.41,2.79,1.41h.65c.63,0,1.28-.33,1.95-1s1-1.46,1-2.39Zm-3.81-16.73h-.46c-.66,0-1.24,.29-1.75,.86s-.76,1.29-.76,2.14v.12c0,1.01,.37,1.93,1.11,2.76,1.05,1.18,2.01,1.78,2.87,1.78h.09c.39,0,.85-.38,1.38-1.14s.8-1.55,.8-2.37v-.72c-.02-.16-.04-.28-.04-.35,0-.76-.32-1.46-.97-2.11s-1.4-.97-2.27-.97Z"/><path class="cls-1" d="M810.85,479.92c1.57,0,2.36,.5,2.36,1.51,0,.8-1.18,1.3-3.53,1.51-1.12,.11-2.1,.46-2.92,1.07s-1.41,1.26-1.77,1.94-.54,1.2-.54,1.53,.08,.57,.23,.69c.41,.36,.97,.54,1.67,.54l1.9-.14c.87,0,1.76,.18,2.69,.53,1.76,.66,3.01,1.86,3.76,3.62,.4,.95,.6,1.92,.6,2.92v.44c0,1-.22,2.01-.65,3.04-.83,1.98-2.33,3.37-4.5,4.17-.95,.35-1.95,.53-3.01,.53h-.53c-1.1,0-2.18-.25-3.23-.76-2.06-.97-3.49-2.67-4.29-5.1-.43-1.32-.65-2.61-.65-3.87v-1.02c0-1.66,.31-3.33,.93-4.99,1.27-3.4,3.38-5.74,6.35-7.01,1.79-.77,3.38-1.16,4.75-1.16h.39Zm-.25,16.91v-.95c0-1.43-.39-2.7-1.16-3.81-.56-.81-1.37-1.21-2.43-1.21h-.14c-1.04,0-1.88,.32-2.51,.95s-.95,1.65-.95,3.04v.44l.02,.16c0,1.52,.33,2.89,.98,4.1s1.51,1.82,2.59,1.82h.44c.9,0,1.66-.44,2.26-1.31s.91-1.95,.91-3.23Z"/></g></svg>