<?xml version="1.0" encoding="UTF-8"?>
<svg xmlns="http://www.w3.org/2000/svg" version="1.1" viewBox="0 0 2027 1305">
  <defs>
    <style>
      .cls-1 {
        fill: #c3ced9;
      }
    </style>
  </defs>
  <!-- Generator: Adobe Illustrator 28.6.0, SVG Export Plug-In . SVG Version: 1.2.0 Build 709)  -->
  <g>
    <g id="Layer_1">
      <path class="cls-1" d="M2020.1,1046L1414.6,23.1c-8.3-14-23.3-22.6-39.5-22.6h-723.8c-16.2,0-31.2,8.6-39.4,22.6L6.4,1046c-4.1,7.1-6.4,15.2-6.4,23.4v189.2c0,25.3,20.5,45.8,45.8,45.8h591.8c16.4,0,31.3-8.4,39.6-22.4l336-567.9,336,567.9c8.3,14,23.3,22.4,39.6,22.4h591.8c25.3,0,45.8-20.5,45.8-45.8v-189.2c0-8.3-2.2-16.4-6.4-23.4Z"/>
    </g>
  </g>
</svg>