<svg width="297" height="87" viewBox="0 0 297 87" fill="none" xmlns="http://www.w3.org/2000/svg">
<path d="M162.495 54.3784C163.106 54.3784 163.622 53.8816 163.622 53.2511V47.6529C163.622 47.0415 163.125 46.5256 162.495 46.5256H153.132V35.3291H161.004C161.616 35.3291 162.132 34.8323 162.132 34.2018V28.6036C162.132 27.9922 161.635 27.4763 161.004 27.4763H153.132V19.8719H162.495C163.106 19.8719 163.622 19.3751 163.622 18.7446V13.1463C163.622 12.5349 163.125 12.019 162.495 12.019H139.146C138.535 12.019 138.019 12.5158 138.019 13.1463V53.232C138.019 53.8434 138.516 54.3593 139.146 54.3593H162.495V54.3784Z" fill="#8F9FAF"/>
<path d="M296.126 44.4238H288.35C287.949 44.4238 287.624 44.7489 287.624 45.1499V53.3084C287.624 53.7094 287.949 54.0345 288.35 54.0345H296.126C296.527 54.0345 296.852 53.7094 296.852 53.3084V45.1499C296.852 44.7489 296.527 44.4238 296.126 44.4238Z" fill="#8F9FAF"/>
<path d="M219.337 31.5079C222.317 31.5079 224.744 29.5972 224.744 27.228V19.2987C224.744 15.2672 220.617 12 215.535 12H190.944C190.333 12 189.817 12.4968 189.817 13.1273V44.4621L192.32 46.5639H189.817H181.659V13.2037C181.659 12.5923 181.162 12.0764 180.531 12.0764H167.653C167.042 12.0764 166.526 12.5732 166.526 13.2037V53.2894C166.526 53.9008 167.023 54.4167 167.653 54.4167H190.161C190.276 54.4167 190.371 54.3976 190.467 54.3785C190.62 54.4549 190.772 54.4931 190.944 54.4931H215.535C220.617 54.4931 224.744 51.2259 224.744 47.1944V35.8259C224.744 33.4567 222.317 31.5461 219.337 31.5461V31.5079ZM208.962 18.9739C209.573 18.9739 210.089 19.4707 210.089 20.1012V27.2853C210.089 27.9158 209.592 28.4126 208.962 28.4126H205.427V18.9739H208.962ZM210.089 46.1435C210.089 46.7549 209.592 47.2708 208.962 47.2708H205.427V34.2401H208.962C209.573 34.2401 210.089 34.7369 210.089 35.3674V46.1435Z" fill="#8F9FAF"/>
<path d="M295.324 12H236.8C231.718 12 227.591 15.2672 227.591 19.2987V47.1562C227.591 51.1877 231.718 54.4549 236.8 54.4549H252.964C258.047 54.4549 262.174 51.1877 262.174 47.1562V22.3367L259.155 19.8719H269.377V53.3276C269.377 53.939 269.874 54.4549 270.504 54.4549H283.42C284.032 54.4549 284.548 53.9581 284.548 53.3276V19.8719H295.324C295.935 19.8719 296.451 19.3752 296.451 18.7446V13.1273C296.451 12.5159 295.954 12 295.324 12ZM245.723 47.2708H244.042C243.43 47.2708 242.914 46.774 242.914 46.1435V20.0821C242.914 19.4707 243.411 18.9548 244.042 18.9548H245.723C246.334 18.9548 246.85 19.4516 246.85 20.0821V46.1435C246.85 46.7549 246.354 47.2708 245.723 47.2708Z" fill="#8F9FAF"/>
<path d="M150.362 64.9062C151.719 64.9062 152.464 65.6323 152.464 67.008V67.6576C152.464 69.0142 151.738 69.7593 150.362 69.7593H148.853V77.23H151.776C153.132 77.23 153.878 77.9561 153.878 79.3317V79.9814C153.878 81.3379 153.152 82.0831 151.776 82.0831H140.102C138.745 82.0831 138 81.357 138 79.9814V79.3317C138 77.9752 138.726 77.23 140.102 77.23H143.025V69.7593H141.439C140.083 69.7593 139.337 69.0333 139.337 67.6576V67.008C139.337 65.6514 140.064 64.9062 141.439 64.9062H150.362Z" fill="#8F9FAF"/>
<path d="M160.718 65.6323C162.074 65.6323 162.819 66.0908 162.819 67.4474V74.3831C162.819 75.3576 162.648 76.8288 162.208 77.7077L160.928 80.3253C160.412 81.3761 160.125 81.8538 158.941 81.8538H156.514C155.253 81.8538 155.463 81.0895 156.151 79.6183L157.852 76.0454V67.4665C157.852 66.1099 158.578 65.6514 159.953 65.6514H160.737L160.718 65.6323ZM166.947 64.1993C168.303 64.1993 169.048 64.6578 169.048 66.0144V75.8925L169.851 74.7844V71.7273C169.851 70.3707 170.156 69.6256 171.532 69.6256H172.87C174.226 69.6256 174.455 70.3516 174.455 71.7273V74.3258C174.455 75.3767 174.188 76.1027 173.519 76.9243L170.424 80.6501C169.717 81.4908 168.953 81.8347 167.845 81.8347H165.819C164.463 81.8347 163.928 81.1086 163.928 79.733V65.9953C163.928 64.6387 164.654 64.1802 166.029 64.1802H166.966L166.947 64.1993Z" fill="#8F9FAF"/>
<path d="M181.181 71.861C182.423 71.8801 182.805 72.6635 182.538 73.8481L181.124 80.2679C180.837 81.5098 180.398 82.1021 179.137 82.1021H177.99C176.5 82.1021 176.385 81.2423 176.71 79.7902L178.067 73.6761C178.353 72.4342 179.117 71.8419 180.378 71.8419H181.2L181.181 71.861ZM187.142 64.4476C188.499 64.4476 189.244 64.8298 189.244 65.5176C189.932 65.5176 191.078 65.3265 191.078 66.2436H192.798C193.466 66.2436 194.154 66.4347 194.154 67.3136C194.154 67.3136 194.212 68.3836 194.212 68.8803C194.212 69.7975 193.925 70.3516 192.549 70.3516H189.225V80.0195C189.225 81.3761 188.499 82.1212 187.123 82.1212H185.499C184.142 82.1212 183.397 81.3952 183.397 80.0195V70.3516H180.302C178.945 70.3516 178.2 69.6255 178.2 68.2498V67.6002C178.2 66.2436 178.926 65.4985 180.302 65.4985H183.397C183.397 64.8106 184.123 64.4285 185.499 64.4285H187.123L187.142 64.4476ZM192.416 71.7846C193.677 71.7846 194.422 72.396 194.708 73.6188L196.065 79.7329C196.409 81.185 196.275 82.0448 194.785 82.0448H193.638C192.377 82.0448 191.938 81.4334 191.651 80.2106L190.218 73.7908C189.951 72.6061 190.352 71.8228 191.575 71.8037H192.397L192.416 71.7846ZM193.791 64.1037C193.791 65.0017 193.314 65.4985 192.473 65.4985C191.632 65.4985 191.135 65.0208 191.135 64.1037C191.135 63.1866 191.613 62.728 192.473 62.728C193.333 62.728 193.791 63.2057 193.791 64.1037ZM197.039 64.1037C197.039 65.0017 196.562 65.4985 195.721 65.4985C194.88 65.4985 194.384 65.0208 194.384 64.1037C194.384 63.1866 194.861 62.728 195.721 62.728C196.581 62.728 197.039 63.2057 197.039 64.1037Z" fill="#8F9FAF"/>
<path d="M202.16 71.3644V74.2113C202.16 75.5679 202.026 76.313 200.651 76.313C199.141 76.313 198.778 75.587 198.778 74.2113V71.3644C198.778 70.0079 198.835 69.2627 200.479 69.2627C201.988 69.2627 202.16 69.9887 202.16 71.3644ZM206.23 71.3644V74.2113C206.23 75.5679 206 76.313 204.644 76.313C202.962 76.313 202.848 75.587 202.848 74.2113V71.3644C202.848 70.0079 203.077 69.2627 204.548 69.2627C206.172 69.2627 206.249 69.9887 206.249 71.3644H206.23ZM211.255 72.186V74.7272C211.236 75.7207 211.064 76.7716 210.605 77.6505L209 80.8031C208.446 81.854 208.045 82.0259 206.077 82.0259C203.86 82.0259 204.319 81.4527 205.141 80.0197L207.089 76.5232V72.186C207.089 70.8294 207.185 70.0843 209.096 70.0843C211.14 70.0843 211.293 70.8103 211.274 72.186H211.255Z" fill="#8F9FAF"/>
<path d="M216.929 64.4668C218.286 64.4668 219.031 65.1928 219.031 66.5685V69.9313H225.012C226.368 69.9313 227.113 70.6573 227.113 72.033V72.7017C227.113 74.0583 226.387 74.8035 225.012 74.8035H219.031V80.0387C219.031 81.3953 218.305 82.1404 216.929 82.1404H215.305C213.949 82.1404 213.204 81.4144 213.204 80.0387V66.5876C213.204 65.2311 213.93 64.4859 215.305 64.4859H216.929V64.4668Z" fill="#8F9FAF"/>
<path d="M101.337 82.2879C100.12 83.1187 96.6638 85.9373 91.1453 86.1153C88.8459 86.1894 11.2607 86.501 11.2607 86.501C7.27017 86.501 4.16973 85.5219 2.3599 80.6116C-0.191655 72.9421 0.980282 64.9759 0.713259 57.158C0.223717 43.1541 0.179209 29.1205 0.00119428 15.1018C-0.102648 7.12073 6.52844 0.207782 14.5243 0.163279C41.6272 0.0594388 68.7302 0.0149363 95.8331 0.000104056C102.509 0.00010464 106.84 4.27249 106.974 11.0074C107.36 30.9749 107.641 50.9423 107.997 70.8949C108.057 74.2921 107.078 77.2442 104.378 79.8105C104.378 79.8105 102.568 81.4572 101.352 82.2731L101.337 82.2879ZM22.8614 44.8601C19.7461 47.7974 18.2923 50.8533 17.5209 54.3543C16.4528 59.22 15.2215 64.0561 14.0348 68.8922C12.7738 74.0547 15.3402 77.3035 20.6955 77.3035C44.7425 77.3035 68.7895 77.2738 92.8365 77.259C93.5189 77.259 94.2012 77.2887 94.8688 77.2293C98.0138 76.8881 101.307 73.2981 100.417 70.4647C97.7171 61.7716 97.8061 52.0104 90.7003 44.6376C92.3766 42.5311 94.0381 40.4245 95.7589 38.2735C95.4919 38.0213 95.2842 37.6653 95.0023 37.606C92.2282 36.9384 92.2876 35.4104 93.5189 33.3039C94.6908 31.2716 95.6699 29.1354 97.0643 26.3761C93.6969 27.0882 91.0415 27.6667 88.208 28.2601C88.2822 26.7025 88.3564 25.3377 88.4454 23.6465C87.6147 23.9284 87.14 24.0619 86.6949 24.2399C83.5055 25.575 80.3012 26.8805 77.1562 28.3046C76.014 28.8238 74.931 29.5507 73.9816 30.3666C70.0653 33.7638 70.0208 38.14 71.2075 42.8278C66.9945 42.8277 62.9001 42.8277 58.5239 42.8277C58.5239 41.5223 58.5387 40.4394 58.5239 39.3416C58.3459 28.9722 58.1679 18.6176 57.9602 8.24817C57.886 4.86587 57.4855 4.59884 54.2664 5.11806C54.2664 17.7423 54.2664 30.3221 54.2664 43.0354C52.3082 43.0354 50.2758 43.0354 48.2435 43.0354C46.2408 43.0354 44.2381 43.0354 42.1909 43.0354C43.6151 35.3362 41.2712 30.4705 35.3225 28.2008C32.5633 27.1475 29.8634 25.9459 27.1338 24.8185C26.303 24.4773 25.4575 24.1361 24.2707 23.6614C24.419 25.3822 24.5377 26.747 24.6861 28.3343C21.7191 27.7261 19.0934 27.192 16.1858 26.5986C16.3935 27.37 16.4083 27.6371 16.527 27.8447C17.3577 29.4172 18.2033 30.9897 19.0637 32.5473C20.3692 34.9407 19.8796 36.7703 17.5951 38.0362C17.4913 38.0955 17.4616 38.318 17.4022 38.4367C19.1972 40.5284 20.9774 42.6201 22.8614 44.8156L22.8614 44.8601Z" fill="#8F9FAF"/>
<path d="M57.4708 46.2988C65.4519 46.2988 73.4329 46.2692 81.4139 46.2988C86.6654 46.3137 88.7719 47.7823 90.5373 52.7371C91.9911 56.8166 93.2817 60.9555 94.6613 65.0498C95.1508 66.5333 95.3585 68.0168 93.5635 68.6843C91.6054 69.4112 90.8191 68.0464 90.2999 66.4591C88.9351 62.3499 87.5258 58.2556 86.2055 54.1315C85.449 51.7728 83.9952 50.7937 81.4733 50.8086C65.4222 50.8976 49.3711 50.9272 33.32 50.8679C30.6498 50.8679 29.2405 51.9212 28.6174 54.443C27.6235 58.3891 26.4812 62.3054 25.428 66.2514C25.0126 67.8387 24.434 69.3815 22.4314 68.9068C20.4287 68.4321 20.5325 66.8151 20.9776 65.1982C22.1198 61.0148 23.1879 56.8166 24.434 52.6777C25.8137 48.0493 27.9202 46.4472 32.7711 46.4027C41.0043 46.3285 49.2524 46.3878 57.4856 46.3878C57.4856 46.3582 57.4856 46.3285 57.4856 46.2988L57.4708 46.2988Z" fill="#8F9FAF"/>
<path d="M38.9716 38.3623C39.0309 42.0561 35.9156 45.2159 32.207 45.2455C28.528 45.2604 25.5462 42.338 25.472 38.659C25.4127 34.9651 28.4983 31.8202 32.2366 31.8054C35.9453 31.7905 38.8974 34.6684 38.9716 38.3623Z" fill="#8F9FAF"/>
<path d="M87.5996 38.4663C87.5551 42.0563 84.3063 45.2457 80.7015 45.2012C76.9631 45.1715 74.0111 42.0711 74.1149 38.2882C74.2039 34.5648 77.3192 31.6423 81.0872 31.7313C84.7365 31.8203 87.6441 34.8318 87.5996 38.4663Z" fill="#8F9FAF"/>
</svg>
