<svg width="2027" height="1305" viewBox="0 0 2027 1305" fill="none" xmlns="http://www.w3.org/2000/svg">
<path d="M677.21 22.9055L1394.56 1235.22C1403 1249.35 1403.17 1267.1 1394.9 1281.41C1386.81 1295.71 1371.47 1304.5 1355.11 1304.5L651.369 1304.5C635.175 1304.5 620.187 1295.88 611.918 1281.92L6.37401 259.025C2.23949 251.959 -1.06375e-05 243.858 -1.02759e-05 235.585L-2.00395e-06 46.345C-8.96503e-07 21.0095 20.5006 0.49994 45.8248 0.499941L637.587 0.499967C653.953 0.499967 668.941 8.94512 677.21 22.9055Z" fill="#C3CED9"/>
<path d="M1349.29 22.9055L631.94 1235.22C623.499 1249.35 623.326 1267.1 631.596 1281.41C639.693 1295.71 655.025 1304.5 671.391 1304.5L1375.13 1304.5C1391.32 1304.5 1406.31 1295.88 1414.58 1281.92L2020.13 259.025C2024.26 251.959 2026.5 243.858 2026.5 235.585L2026.5 46.3451C2026.5 21.0097 2006 0.50006 1980.68 0.500059L1388.91 0.500033C1372.55 0.500033 1357.56 8.94518 1349.29 22.9055Z" fill="#C3CED9"/>
</svg>
