<?xml version="1.0" encoding="utf-8"?>
<!-- Generator: Adobe Illustrator 26.3.1, SVG Export Plug-In . SVG Version: 6.00 Build 0)  -->
<svg version="1.1" id="Layer_1" xmlns="http://www.w3.org/2000/svg" xmlns:xlink="http://www.w3.org/1999/xlink" x="0px" y="0px"
	 viewBox="0 0 1406.2 308" style="enable-background:new 0 0 1406.2 308;" xml:space="preserve">
<style type="text/css">
	.st0{fill:#DBE2E8;}
</style>
<path class="st0" d="M358.3,47.4c21.5,0,33,7.3,33,28.8v109.4c0,15.5-2.6,38.7-9.6,52.5l-20.2,41.3c-8.2,16.5-12.5,24.1-31.4,24.1
	h-38.3c-19.8,0-16.5-12.2-5.6-35.4l26.8-56.5V76.1c0-21.5,11.6-28.8,33-28.8H358.3z M456.8,24.6c21.5,0,33,7.3,33,28.7v156
	l12.5-17.5v-48.2c0-21.5,5-33,26.4-33h21.1c21.5,0,25.1,11.6,25.1,33v41c0,16.5-4.3,28.1-14.9,41l-48.9,58.8
	c-11.2,13.2-23.1,18.8-40.6,18.8h-32.1c-21.5,0-29.8-11.6-29.8-33V53.3c0-21.5,11.6-28.7,33.1-28.7H456.8z"/>
<path class="st0" d="M194.9,35.8c21.5,0,33,11.5,33,33v10.2c0,21.5-11.5,33-33,33h-23.8v118h46.3c21.5,0,33,11.6,33,33v10.3
	c0,21.5-11.6,33-33,33H33c-21.5,0-33-11.6-33-33v-10.3c0-21.5,11.6-33,33-33h46.2v-118H54.2c-21.5,0-33-11.5-33-33V68.9
	c0-21.5,11.6-33,33-33H194.9z"/>
<path class="st0" d="M681.3,145.5c19.5,0.3,25.8,12.6,21.5,31.4l-22.5,101.4c-4.6,19.5-11.6,29.1-31.4,29.1h-18.2
	c-23.5,0-25.5-13.6-20.2-36.3l21.5-96.5c4.6-19.5,16.5-29.1,36.3-29.1H681.3z M775.5,28.5c21.5,0,33,5.9,33,16.9
	c10.9,0,29.1-3,29.1,11.6h27.1c10.6,0,21.5,3,21.5,16.8c0,0,1,16.8,1,24.8c0,14.5-4.6,23.1-26.1,23.1h-52.5v152.7
	c0,21.5-11.6,33-33,33h-25.8c-21.5,0-33-11.6-33-33V121.7h-48.9c-21.5,0-33-11.6-33-33V78.4c0-21.5,11.6-33,33-33h48.9
	c0-10.9,11.5-16.9,33-16.9H775.5z M858.7,144.5c19.8,0,31.7,9.6,36.3,29.1l21.5,96.5c5.3,22.8,3.3,36.3-20.2,36.3h-18.2
	c-19.8,0-26.7-9.6-31.4-29.1l-22.5-101.4c-4.3-18.8,2-31.1,21.5-31.4H858.7z M880.5,23.3c0,14.2-7.6,22.1-20.8,22.1
	c-13.5,0-21.1-7.6-21.1-22.1c0-14.2,7.6-21.8,21.1-21.8C872.9,1.4,880.5,9,880.5,23.3z M931.8,23.3c0,14.2-7.6,22.1-20.8,22.1
	c-13.6,0-21.1-7.6-21.1-22.1c0-14.2,7.6-21.8,21.1-21.8C924.2,1.4,931.8,9,931.8,23.3z"/>
<path class="st0" d="M1012.6,137.9v45c0,21.5-2,33-23.8,33c-23.8,0-29.4-11.6-29.4-33v-45c0-21.5,1-33,26.8-33
	C1009.9,104.9,1012.6,116.4,1012.6,137.9z M1076.7,137.9v45c0,21.5-3.6,33-25.1,33c-26.4,0-28.4-11.6-28.4-33v-45
	c0-21.5,3.6-33,26.8-33C1075.7,104.9,1076.7,116.4,1076.7,137.9z M1156,150.8l-0.3,40c0,15.6-2.6,32.4-9.9,46.3l-25.4,49.9
	c-8.6,16.5-15.2,19.2-46.3,19.2c-35,0-27.8-8.9-14.9-31.7l30.7-55.2v-68.4c0-21.5,1.6-33,31.7-33
	C1154,117.7,1156.3,129.3,1156,150.8z"/>
<g>
	<path class="st0" d="M1245.6,28.9c21.5,0,33,11.5,33,33v53.2h94.5c21.5,0,33.1,11.6,33.1,33v10.6c0,21.5-11.6,33-33.1,33h-94.5
		v82.6c0,21.5-11.5,33-33,33h-25.8c-21.5,0-33-11.6-33-33V61.9c0-21.5,11.6-33,33-33H1245.6z"/>
</g>
</svg>
