<?xml version="1.0" encoding="utf-8"?>
<!-- Generator: Adobe Illustrator 26.3.1, SVG Export Plug-In . SVG Version: 6.00 Build 0)  -->
<svg version="1.1" id="Layer_1" xmlns="http://www.w3.org/2000/svg" xmlns:xlink="http://www.w3.org/1999/xlink" x="0px" y="0px"
	 viewBox="0 0 1141 308" style="enable-background:new 0 0 1141 308;" xml:space="preserve">
<style type="text/css">
	.clr-white{fill:#DBE2E8;}
</style>
<path class="clr-white" d="M170.6,1H8.1C3.6,1,0,4.6,0,9.1v290.4c0,4.5,3.6,8.1,8.1,8.1h162.5c4.5,0,8.1-3.6,8.1-8.1v-40.9
	c0-4.5-3.6-8.1-8.1-8.1h-61.5v-80.9h50.7c4.5,0,8.1-3.6,8.1-8.1v-40.4c0-4.5-3.6-8.1-8.1-8.1h-50.7V58h61.5c4.5,0,8.1-3.6,8.1-8.1
	V9.1C178.7,4.6,175.1,1,170.6,1z"/>
<path class="clr-white" d="M1135.7,238.1h-56c-2.9,0-5.3,2.4-5.3,5.3v58.9c0,2.9,2.4,5.3,5.3,5.3h56c2.9,0,5.3-2.4,5.3-5.3v-58.9
	C1141,240.5,1138.6,238.1,1135.7,238.1z"/>
<path class="clr-white" d="M514.3,247.5c0,4.5-3.6,8.1-8.1,8.1h-25.6v-94.1h25.6c4.5,0,8.1,3.6,8.1,8.1V247.5z M506.2,51.2
	c4.5,0,8.1,3.6,8.1,8.1v51.9c0,4.5-3.6,8.1-8.1,8.1h-25.6l0-68.2H506.2z M373.2,307.6h180.4c36.7,0,66.5-23.6,66.5-52.7v-82.1
	c0-17.1-17.5-30.9-39-30.9c21.5,0,39-13.9,39-30.9V53.7c0-29.1-29.8-52.7-66.5-52.7H376c-4.5,0-8.1,3.6-8.1,8.1v226.3l18.1,15.1
	h-15.6h-2.5h-59V9.1c0-4.5-3.6-8.1-8.1-8.1h-93c-4.5,0-8.1,3.6-8.1,8.1l0,290.4c0,4.5,3.6,8.1,8.1,8.1H373.2z"/>
<path class="clr-white" d="M779.9,247.5c0,4.5-3.6,8.1-8.1,8.1h-12.2c-4.5,0-8.1-3.6-8.1-8.1V59.4c0-4.5,3.6-8.1,8.1-8.1h12.2
	c4.5,0,8.1,3.6,8.1,8.1V247.5z M1138.2,49.6V9.1c0-4.5-3.7-8.1-8.1-8.1L897.3,1h-73.1h-66.7h-50.1c-36.7,0-66.5,23.6-66.5,52.7
	v201.2c0,29.1,29.8,52.7,66.5,52.7h116.8c36.7,0,66.5-23.6,66.5-52.7V112V88.8V75.6l-21.8-17.8h28.4h45.4v241.7
	c0,4.5,3.6,8.1,8.1,8.1h93.3c4.5,0,8.1-3.6,8.1-8.1V57.7h77.9C1134.5,57.7,1138.2,54.1,1138.2,49.6z"/>
</svg>
