<svg version="1.1" id="Layer_1" xmlns="http://www.w3.org/2000/svg" xmlns:xlink="http://www.w3.org/1999/xlink" x="0px" y="0px"
	 viewBox="0 0 1141 702.4" style="enable-background:new 0 0 1141 702.4;" xml:space="preserve">
<path class="stk-white" d="M170.6,198.7H8.1c-4.4,0-8.1,3.6-8.1,8.1v289.5c0,4.5,3.6,8.1,8.1,8.1h162.5c4.5,0,8.1-3.6,8.1-8.1v-40.4
	c0-4.5-3.6-8.1-8.1-8.1h-61.5v-80.9h50.7c4.5,0,8.1-3.6,8.1-8.1v-40.4c0-4.5-3.6-8.1-8.1-8.1h-50.7v-55h61.5c4.5,0,8.1-3.6,8.1-8.1
	v-40.4C178.7,202.3,175.1,198.7,170.6,198.7z"/>
<path class="stk-white" d="M1135.7,432.3h-56c-2.9,0-5.3,2.4-5.3,5.3v58.9c0,2.9,2.4,5.3,5.3,5.3h56c2.9,0,5.3-2.4,5.3-5.3v-58.9
	C1141,434.7,1138.6,432.3,1135.7,432.3z"/>
<path class="stk-white" d="M514.3,444.8c0,4.5-3.6,8.1-8.1,8.1h-25.6v-94.1h25.6c4.5,0,8.1,3.6,8.1,8.1V444.8z M506.2,248.5
	c4.5,0,8.1,3.6,8.1,8.1v51.9c0,4.5-3.6,8.1-8.1,8.1h-25.6l0-68.2H506.2z M553.7,198.2H376c-4.5,0-8.1,3.6-8.1,8.1v226.3l18.1,15.1
	h-15.6h-2.5h-59v-241c0-4.5-3.6-8.1-8.1-8.1h-93c-4.5,0-8.1,3.6-8.1,8.1l0,289.5c0,4.5,3.6,8.1,8.1,8.1h162.5c0.7,0,1.4-0.2,2.1-0.4
	c1.1,0.5,2.2,0.9,3.5,0.9h177.6c36.7,0,66.5-23.6,66.5-52.7V370c0-17.1-17.5-30.9-39-30.9c21.5,0,39-13.9,39-30.9v-57.2
	C620.2,221.8,590.4,198.2,553.7,198.2z"/>
<path class="stk-white" d="M779.9,444.8c0,4.5-3.6,8.1-8.1,8.1h-12.2c-4.5,0-8.1-3.6-8.1-8.1V256.6c0-4.5,3.6-8.1,8.1-8.1h12.2
	c4.5,0,8.1,3.6,8.1,8.1V444.8z M1138.2,246.9v-40.6c0-4.5-3.7-8.1-8.1-8.1l-232.8,0h-73.1h-66.7h-50.1c-36.7,0-66.5,23.6-66.5,52.7
	v201.2c0,29.1,29.8,52.7,66.5,52.7h116.8c36.7,0,66.5-23.6,66.5-52.7V309.3V286v-13.2L868.9,255h28.4h45.4v241.7
	c0,4.5,3.6,8.1,8.1,8.1h93.3c4.5,0,8.1-3.6,8.1-8.1V255h77.9C1134.5,255,1138.2,251.3,1138.2,246.9z"/>
<path class="stk-aqua" d="M88.7,578.7c9.8,0,15,5.3,15,15v4.7c0,9.8-5.3,15-15,15H77.9v53.7h21.1c9.8,0,15,5.3,15,15v4.7
	c0,9.8-5.3,15-15,15H15c-9.8,0-15-5.3-15-15v-4.7c0-9.8,5.3-15,15-15h21v-53.7H24.7c-9.8,0-15-5.3-15-15v-4.7c0-9.8,5.3-15,15-15
	H88.7z"/>
<path class="stk-aqua" d="M163.1,584c9.8,0,15,3.3,15,13.1v49.8c0,7.1-1.2,17.6-4.4,23.9l-9.2,18.8c-3.7,7.5-5.7,11-14.3,11h-17.4
	c-9,0-7.5-5.6-2.6-16.1l12.2-25.7V597c0-9.8,5.3-13.1,15-13.1H163.1z M207.9,573.6c9.8,0,15,3.3,15,13.1v71l5.7-8v-22
	c0-9.8,2.3-15,12-15h9.6c9.8,0,11.4,5.3,11.4,15v18.6c0,7.5-2,12.8-6.8,18.6l-22.3,26.8c-5.1,6-10.5,8.6-18.5,8.6h-14.6
	c-9.8,0-13.5-5.3-13.5-15v-98.6c0-9.8,5.3-13.1,15-13.1H207.9z"/>
<path class="stk-aqua" d="M310,628.6c8.9,0.1,11.7,5.7,9.8,14.3l-10.2,46.2c-2.1,8.9-5.3,13.2-14.3,13.2H287c-10.7,0-11.6-6.2-9.2-16.5
	l9.8-43.9c2.1-8.9,7.5-13.2,16.5-13.2H310z M352.9,575.4c9.8,0,15,2.7,15,7.7c5,0,13.2-1.4,13.2,5.3h12.3c4.8,0,9.8,1.3,9.8,7.7
	c0,0,0.5,7.7,0.5,11.3c0,6.6-2.1,10.5-11.9,10.5h-23.9v69.5c0,9.8-5.3,15-15,15h-11.7c-9.8,0-15-5.3-15-15v-69.5h-22.3
	c-9.8,0-15-5.3-15-15v-4.7c0-9.8,5.3-15,15-15h22.3c0-5,5.3-7.7,15-7.7H352.9z M390.8,628.2c9,0,14.4,4.4,16.5,13.2l9.8,43.9
	c2.4,10.4,1.5,16.5-9.2,16.5h-8.3c-9,0-12.2-4.4-14.3-13.2l-10.2-46.2c-1.9-8.6,0.9-14.1,9.8-14.3H390.8z M400.7,573
	c0,6.5-3.5,10.1-9.5,10.1c-6.2,0-9.6-3.5-9.6-10.1c0-6.5,3.5-9.9,9.6-9.9C397.3,563.1,400.7,566.5,400.7,573z M424,573
	c0,6.5-3.5,10.1-9.5,10.1c-6.2,0-9.6-3.5-9.6-10.1c0-6.5,3.5-9.9,9.6-9.9C420.6,563.1,424,566.5,424,573z"/>
<path class="stk-aqua" d="M460.8,625.2v20.5c0,9.8-0.9,15-10.8,15c-10.8,0-13.4-5.3-13.4-15v-20.5c0-9.8,0.5-15,12.2-15
	C459.6,610.1,460.8,615.4,460.8,625.2z M490,625.2v20.5c0,9.8-1.6,15-11.4,15c-12,0-12.9-5.3-12.9-15v-20.5c0-9.8,1.7-15,12.2-15
	C489.5,610.1,490,615.4,490,625.2z M526.1,631l-0.1,18.2c0,7.1-1.2,14.7-4.5,21.1L509.8,693c-3.9,7.5-6.9,8.7-21.1,8.7
	c-15.9,0-12.6-4.1-6.8-14.4l14-25.1V631c0-9.8,0.7-15,14.4-15C525.2,616,526.2,621.2,526.1,631z"/>
<path class="stk-aqua" d="M566.9,575.5c9.8,0,15,5.3,15,15v24.2h43c9.8,0,15,5.3,15,15v4.8c0,9.8-5.3,15-15,15h-43v37.6
	c0,9.8-5.3,15-15,15h-11.7c-9.8,0-15-5.3-15-15v-96.7c0-9.8,5.3-15,15-15H566.9z"/>
</svg>
