<?xml version="1.0" encoding="utf-8"?>
<!-- Generator: Adobe Illustrator 26.3.1, SVG Export Plug-In . SVG Version: 6.00 Build 0)  -->
<svg version="1.1" id="Layer_1" xmlns="http://www.w3.org/2000/svg" xmlns:xlink="http://www.w3.org/1999/xlink" x="0px" y="0px"
	 viewBox="0 0 1141 308" style="enable-background:new 0 0 1141 308;" xml:space="preserve">
<style type="text/css">
	.st0{fill:none;}
	.st1{fill:url(#New_Pattern_Swatch_1);}
	.st2{filter:url(#Adobe_OpacityMaskFilter);}
	.st3{opacity:0.75;mask:url(#SVGID_1_);}
	.st4{fill:#FFFFFF;}
	.st5{filter:url(#Adobe_OpacityMaskFilter_00000032648351527550205740000011261975166336765348_);}
	.st6{opacity:0.75;mask:url(#SVGID_00000078035089749283317310000008567463277119506055_);}
	.st7{filter:url(#Adobe_OpacityMaskFilter_00000047026367085090713040000009381995514312918918_);}
	.st8{opacity:0.75;mask:url(#SVGID_00000128444757258558934480000007404297543695720891_);}
	.st9{filter:url(#Adobe_OpacityMaskFilter_00000054226995479307127100000009517616508933892237_);}
	.st10{opacity:0.75;mask:url(#SVGID_00000043430938207798090290000007830773330598778528_);}
</style>
<pattern  y="308" width="143" height="143" patternUnits="userSpaceOnUse" id="New_Pattern_Swatch_1" viewBox="0 -143 143 143" style="overflow:visible;">
	<g>
		<rect y="-143" class="st0" width="143" height="143"/>
	</g>
</pattern>
<g>
	<g>
		<path class="st1" d="M170.6,1.4H8.1C3.6,1.4,0,5.1,0,9.5V299c0,4.5,3.6,8.1,8.1,8.1h162.5c4.5,0,8.1-3.6,8.1-8.1v-40.4
			c0-4.5-3.6-8.1-8.1-8.1h-61.5v-80.9h50.7c4.5,0,8.1-3.6,8.1-8.1v-40.4c0-4.5-3.6-8.1-8.1-8.1h-50.7V58h61.5c4.5,0,8.1-3.6,8.1-8.1
			V9.5C178.7,5.1,175.1,1.4,170.6,1.4z"/>
	</g>
	<defs>
		<filter id="Adobe_OpacityMaskFilter" filterUnits="userSpaceOnUse" x="0" y="1.4" width="178.7" height="305.6">
			
				<feColorMatrix  type="matrix" values="-1 0 0 0 1  0 -1 0 0 1  0 0 -1 0 1  0 0 0 1 0" color-interpolation-filters="sRGB" result="source"/>
		</filter>
	</defs>
	<mask maskUnits="userSpaceOnUse" x="0" y="1.4" width="178.7" height="305.6" id="SVGID_1_">
		<g class="st2">
			<image style="overflow:visible;" width="183" height="311" xlink:href="FDBCCE4.jpg"  transform="matrix(1 0 0 1 -2 -1)">
			</image>
		</g>
	</mask>
	<g class="st3">
		<path class="st4" d="M170.6,1.4H8.1C3.6,1.4,0,5.1,0,9.5V299c0,4.5,3.6,8.1,8.1,8.1h162.5c4.5,0,8.1-3.6,8.1-8.1v-40.4
			c0-4.5-3.6-8.1-8.1-8.1h-61.5v-80.9h50.7c4.5,0,8.1-3.6,8.1-8.1v-40.4c0-4.5-3.6-8.1-8.1-8.1h-50.7V58h61.5c4.5,0,8.1-3.6,8.1-8.1
			V9.5C178.7,5.1,175.1,1.4,170.6,1.4z"/>
	</g>
</g>
<g>
	<g>
		<path class="st1" d="M1135.7,235.1h-56c-2.9,0-5.3,2.4-5.3,5.3v58.9c0,2.9,2.4,5.3,5.3,5.3h56c2.9,0,5.3-2.4,5.3-5.3v-58.9
			C1141,237.5,1138.6,235.1,1135.7,235.1z"/>
	</g>
	<defs>
		
			<filter id="Adobe_OpacityMaskFilter_00000009555955491667363340000017114959531307664049_" filterUnits="userSpaceOnUse" x="1074.4" y="235.1" width="66.6" height="69.4">
			
				<feColorMatrix  type="matrix" values="-1 0 0 0 1  0 -1 0 0 1  0 0 -1 0 1  0 0 0 1 0" color-interpolation-filters="sRGB" result="source"/>
		</filter>
	</defs>
	
		<mask maskUnits="userSpaceOnUse" x="1074.4" y="235.1" width="66.6" height="69.4" id="SVGID_00000047029086822248649160000016998241307184818572_">
		<g style="filter:url(#Adobe_OpacityMaskFilter_00000009555955491667363340000017114959531307664049_);">
			<image style="overflow:visible;" width="71" height="74" xlink:href="FDBCCE5.jpg"  transform="matrix(1 0 0 1 1072 233)">
			</image>
		</g>
	</mask>
	<g style="opacity:0.75;mask:url(#SVGID_00000047029086822248649160000016998241307184818572_);">
		<path class="st4" d="M1135.7,235.1h-56c-2.9,0-5.3,2.4-5.3,5.3v58.9c0,2.9,2.4,5.3,5.3,5.3h56c2.9,0,5.3-2.4,5.3-5.3v-58.9
			C1141,237.5,1138.6,235.1,1135.7,235.1z"/>
	</g>
</g>
<g>
	<g>
		<path class="st1" d="M514.3,247.5c0,4.5-3.6,8.1-8.1,8.1h-25.6v-94.1h25.6c4.5,0,8.1,3.6,8.1,8.1V247.5z M506.2,51.2
			c4.5,0,8.1,3.6,8.1,8.1v51.9c0,4.5-3.6,8.1-8.1,8.1h-25.6l0-68.2H506.2z M553.7,1H376c-4.5,0-8.1,3.6-8.1,8.1v226.3l18.1,15.1
			h-15.6h-2.5h-59V9.5c0-4.5-3.6-8.1-8.1-8.1h-93c-4.5,0-8.1,3.6-8.1,8.1l0,289.5c0,4.5,3.6,8.1,8.1,8.1h162.5
			c0.7,0,1.4-0.2,2.1-0.4c1.1,0.5,2.2,0.9,3.5,0.9h177.6c36.7,0,66.5-23.6,66.5-52.7v-82.1c0-17.1-17.5-30.9-39-30.9
			c21.5,0,39-13.9,39-30.9V53.7C620.2,24.6,590.4,1,553.7,1z"/>
	</g>
	<defs>
		
			<filter id="Adobe_OpacityMaskFilter_00000022558950057319603360000005614146621251721663_" filterUnits="userSpaceOnUse" x="199.8" y="1" width="420.4" height="306.6">
			
				<feColorMatrix  type="matrix" values="-1 0 0 0 1  0 -1 0 0 1  0 0 -1 0 1  0 0 0 1 0" color-interpolation-filters="sRGB" result="source"/>
		</filter>
	</defs>
	
		<mask maskUnits="userSpaceOnUse" x="199.8" y="1" width="420.4" height="306.6" id="SVGID_00000170963003185270761070000014475363309305033357_">
		<g style="filter:url(#Adobe_OpacityMaskFilter_00000022558950057319603360000005614146621251721663_);">
			<image style="overflow:visible;" width="426" height="312" xlink:href="FDBCCE3.jpg"  transform="matrix(1 0 0 1 197 -2)">
			</image>
		</g>
	</mask>
	<g style="opacity:0.75;mask:url(#SVGID_00000170963003185270761070000014475363309305033357_);">
		<path class="st4" d="M514.3,247.5c0,4.5-3.6,8.1-8.1,8.1h-25.6v-94.1h25.6c4.5,0,8.1,3.6,8.1,8.1V247.5z M506.2,51.2
			c4.5,0,8.1,3.6,8.1,8.1v51.9c0,4.5-3.6,8.1-8.1,8.1h-25.6l0-68.2H506.2z M553.7,1H376c-4.5,0-8.1,3.6-8.1,8.1v226.3l18.1,15.1
			h-15.6h-2.5h-59V9.5c0-4.5-3.6-8.1-8.1-8.1h-93c-4.5,0-8.1,3.6-8.1,8.1l0,289.5c0,4.5,3.6,8.1,8.1,8.1h162.5
			c0.7,0,1.4-0.2,2.1-0.4c1.1,0.5,2.2,0.9,3.5,0.9h177.6c36.7,0,66.5-23.6,66.5-52.7v-82.1c0-17.1-17.5-30.9-39-30.9
			c21.5,0,39-13.9,39-30.9V53.7C620.2,24.6,590.4,1,553.7,1z"/>
	</g>
</g>
<g>
	<g>
		<path class="st1" d="M779.9,247.5c0,4.5-3.6,8.1-8.1,8.1h-12.2c-4.5,0-8.1-3.6-8.1-8.1V59.4c0-4.5,3.6-8.1,8.1-8.1h12.2
			c4.5,0,8.1,3.6,8.1,8.1V247.5z M1138.2,49.6V9.1c0-4.5-3.7-8.1-8.1-8.1L897.3,1h-73.1h-66.7h-50.1c-36.7,0-66.5,23.6-66.5,52.7
			v201.2c0,29.1,29.8,52.7,66.5,52.7h116.8c36.7,0,66.5-23.6,66.5-52.7V112V88.8V75.6l-21.8-17.8h28.4h45.4v241.7
			c0,4.5,3.6,8.1,8.1,8.1h93.3c4.5,0,8.1-3.6,8.1-8.1V57.7h77.9C1134.5,57.7,1138.2,54.1,1138.2,49.6z"/>
	</g>
	<defs>
		
			<filter id="Adobe_OpacityMaskFilter_00000068670592526069161460000004860249378957308555_" filterUnits="userSpaceOnUse" x="640.8" y="1" width="497.4" height="306.6">
			
				<feColorMatrix  type="matrix" values="-1 0 0 0 1  0 -1 0 0 1  0 0 -1 0 1  0 0 0 1 0" color-interpolation-filters="sRGB" result="source"/>
		</filter>
	</defs>
	
		<mask maskUnits="userSpaceOnUse" x="640.8" y="1" width="497.4" height="306.6" id="SVGID_00000098925344719561764850000006655876715348535459_">
		<g style="filter:url(#Adobe_OpacityMaskFilter_00000068670592526069161460000004860249378957308555_);">
			<image style="overflow:visible;" width="503" height="312" xlink:href="FDBCCEC.jpg"  transform="matrix(1 0 0 1 638 -2)">
			</image>
		</g>
	</mask>
	<g style="opacity:0.75;mask:url(#SVGID_00000098925344719561764850000006655876715348535459_);">
		<path class="st4" d="M779.9,247.5c0,4.5-3.6,8.1-8.1,8.1h-12.2c-4.5,0-8.1-3.6-8.1-8.1V59.4c0-4.5,3.6-8.1,8.1-8.1h12.2
			c4.5,0,8.1,3.6,8.1,8.1V247.5z M1138.2,49.6V9.1c0-4.5-3.7-8.1-8.1-8.1L897.3,1h-73.1h-66.7h-50.1c-36.7,0-66.5,23.6-66.5,52.7
			v201.2c0,29.1,29.8,52.7,66.5,52.7h116.8c36.7,0,66.5-23.6,66.5-52.7V112V88.8V75.6l-21.8-17.8h28.4h45.4v241.7
			c0,4.5,3.6,8.1,8.1,8.1h93.3c4.5,0,8.1-3.6,8.1-8.1V57.7h77.9C1134.5,57.7,1138.2,54.1,1138.2,49.6z"/>
	</g>
</g>
</svg>
