<?xml version="1.0" standalone="no"?>
<!DOCTYPE svg PUBLIC "-//W3C//DTD SVG 20010904//EN"
 "http://www.w3.org/TR/2001/REC-SVG-20010904/DTD/svg10.dtd">
<svg version="1.0" xmlns="http://www.w3.org/2000/svg"
 width="310.000000pt" height="310.000000pt" viewBox="0 0 310.000000 310.000000"
 preserveAspectRatio="xMidYMid meet">
<metadata>
Created by potrace 1.14, written by Peter Selinger 2001-2017
</metadata>
<g transform="translate(0.000000,310.000000) scale(0.100000,-0.100000)"
fill="#000000" stroke="none">
<path d="M212 3082 c-10 -10 -24 -16 -30 -14 -7 2 -12 -1 -12 -8 0 -6 -4 -9
-9 -6 -5 3 -12 -1 -15 -10 -3 -9 -13 -14 -20 -11 -10 4 -14 0 -11 -13 3 -13
-1 -17 -11 -13 -8 3 -14 0 -14 -7 0 -6 -5 -8 -12 -4 -8 5 -7 0 2 -11 14 -17
13 -18 -2 -12 -16 6 -23 -3 -19 -25 0 -5 -6 -8 -14 -8 -9 0 -12 -6 -9 -15 4
-8 1 -15 -6 -15 -10 0 -10 -3 0 -15 10 -12 8 -13 -10 -10 -19 4 -20 2 -8 -12
9 -12 9 -15 1 -9 -10 5 -13 -266 -13 -1303 0 -771 4 -1311 9 -1311 5 0 12 -7
15 -16 6 -15 4 -15 -10 -3 -16 13 -16 12 -5 -9 7 -12 17 -20 23 -16 7 4 8 3 4
-4 -4 -7 -2 -12 5 -12 8 0 8 -4 -1 -15 -10 -12 -9 -16 4 -21 9 -3 13 -11 9
-17 -4 -6 0 -8 10 -4 12 4 14 2 10 -11 -3 -9 -3 -14 2 -10 9 8 35 -16 35 -32
0 -7 8 -10 19 -7 13 3 18 0 15 -8 -3 -7 0 -16 7 -21 8 -5 10 -3 5 7 -4 8 -1 6
7 -3 8 -10 24 -18 37 -18 15 0 20 -4 17 -15 -5 -13 159 -14 1321 -15 913 0
1332 4 1342 11 12 8 10 9 -7 4 -13 -3 -23 -3 -23 2 0 7 27 13 77 16 7 0 10 3
8 7 -6 10 30 42 38 33 10 -9 58 47 51 59 -4 6 -2 8 3 5 6 -4 17 1 24 10 12 14
12 16 -1 9 -8 -4 -1 5 15 19 17 15 25 24 19 21 -7 -3 -15 2 -18 11 -4 10 -4
14 0 10 4 -4 13 1 20 11 11 14 13 264 14 1329 0 1156 -2 1313 -15 1327 -8 8
-15 20 -15 26 0 6 -7 18 -15 27 -8 8 -12 19 -9 25 4 6 -2 8 -17 4 -13 -3 -18
-3 -11 0 20 9 14 33 -7 29 -15 -3 -18 1 -14 12 5 12 3 14 -7 8 -10 -6 -12 -4
-7 8 3 9 3 16 -1 15 -10 -3 -72 20 -72 27 0 3 5 3 12 -1 7 -4 8 -3 4 4 -4 6
-14 8 -23 5 -12 -5 -14 -3 -8 7 6 10 4 11 -6 4 -20 -12 -40 -14 -33 -3 3 5 10
6 16 3 7 -4 8 -2 4 4 -5 9 -341 12 -1327 12 -1255 0 -1320 -1 -1337 -18z m34
-4 c4 -7 4 -10 -1 -6 -4 4 -15 2 -24 -5 -14 -11 -14 -10 -2 6 16 20 18 21 27
5z m2842 -223 c-3 -3 -9 2 -12 12 -6 14 -5 15 5 6 7 -7 10 -15 7 -18z"/>
</g>
</svg>
